<svg xmlns="http://www.w3.org/2000/svg" xmlns:xlink="http://www.w3.org/1999/xlink" width="3000" zoomAndPan="magnify" viewBox="0 0 2250 2250.000011" height="3000" preserveAspectRatio="xMidYMid meet" version="1.0"><defs><g/><clipPath id="93191ad1af"><path d="M 0.5 0 L 2249.5 0 L 2249.5 2249 L 0.5 2249 Z M 0.5 0 " clip-rule="nonzero"/></clipPath><clipPath id="4560864531"><path d="M 106.203125 0 L 2143.796875 0 C 2202.175781 0 2249.5 47.324219 2249.5 105.703125 L 2249.5 2143.296875 C 2249.5 2201.675781 2202.175781 2249 2143.796875 2249 L 106.203125 2249 C 47.824219 2249 0.5 2201.675781 0.5 2143.296875 L 0.5 105.703125 C 0.5 47.324219 47.824219 0 106.203125 0 Z M 106.203125 0 " clip-rule="nonzero"/></clipPath></defs><g clip-path="url(#93191ad1af)"><g clip-path="url(#4560864531)"><path fill="#000000" d="M 0.5 0 L 2249.5 0 L 2249.5 2249 L 0.5 2249 Z M 0.5 0 " fill-opacity="1" fill-rule="nonzero"/></g></g><g fill="#ffffff" fill-opacity="1"><g transform="translate(93.265656, 1642.253314)"><g><path d="M 907.890625 -412.671875 C 907.890625 -137.554688 770.332031 0 495.21875 0 L 0 0 L 0 -247.609375 L 495.21875 -247.609375 C 605.257812 -247.609375 660.28125 -302.628906 660.28125 -412.671875 L 0 -412.671875 L 0 -660.28125 C 0 -935.40625 137.554688 -1072.96875 412.671875 -1072.96875 L 907.890625 -1072.96875 L 907.890625 -825.359375 L 412.671875 -825.359375 C 302.628906 -825.359375 247.609375 -770.332031 247.609375 -660.28125 L 907.890625 -660.28125 Z M 907.890625 -412.671875 "/></g></g><g transform="translate(1083.695729, 1642.253314)"><g><path d="M 412.671875 -1072.96875 L 412.671875 -1155.5 L 660.28125 -1155.5 L 660.28125 -1072.96875 L 1072.96875 -1072.96875 L 1072.96875 -825.359375 L 990.421875 -825.359375 L 990.421875 -247.609375 L 1072.96875 -247.609375 L 1072.96875 0 L 990.421875 0 C 825.347656 0 742.8125 -82.535156 742.8125 -247.609375 L 742.8125 -412.671875 L 330.140625 -412.671875 L 330.140625 -247.609375 C 330.140625 -82.535156 247.601562 0 82.53125 0 L 0 0 L 0 -247.609375 L 82.53125 -247.609375 L 82.53125 -825.359375 L 0 -825.359375 L 0 -1072.96875 Z M 742.8125 -825.359375 L 330.140625 -825.359375 L 330.140625 -660.28125 L 742.8125 -660.28125 Z M 742.8125 -825.359375 "/></g></g></g></svg>