<svg xmlns="http://www.w3.org/2000/svg" xmlns:xlink="http://www.w3.org/1999/xlink" width="3000" zoomAndPan="magnify" viewBox="0 0 2250 2250.000011" height="3000" preserveAspectRatio="xMidYMid meet" version="1.0"><defs><g/><clipPath id="9a2d23c7e6"><path d="M 0.5 0 L 2249.5 0 L 2249.5 2249 L 0.5 2249 Z M 0.5 0 " clip-rule="nonzero"/></clipPath></defs><g clip-path="url(#9a2d23c7e6)"><path fill="#000000" d="M 1640.6875 0.4375 L 609.3125 0.4375 C 273.71875 0.4375 0.5 273.21875 0.5 609.25 L 0.5 1639.75 C 0.5 1975.34375 273.71875 2248.5625 609.3125 2248.5625 L 1640.6875 2248.5625 C 1976.28125 2248.5625 2249.5 1975.34375 2249.5 1639.75 L 2249.5 609.25 C 2249.5 273.21875 1976.28125 0.4375 1640.6875 0.4375 Z M 1640.6875 0.4375 " fill-opacity="1" fill-rule="nonzero"/></g><g fill="#ffffff" fill-opacity="1"><g transform="translate(82.770321, 1617.514311)"><g><path d="M 907.890625 -412.671875 C 907.890625 -137.554688 770.332031 0 495.21875 0 L 0 0 L 0 -247.609375 L 495.21875 -247.609375 C 605.257812 -247.609375 660.28125 -302.628906 660.28125 -412.671875 L 0 -412.671875 L 0 -660.28125 C 0 -935.40625 137.554688 -1072.96875 412.671875 -1072.96875 L 907.890625 -1072.96875 L 907.890625 -825.359375 L 412.671875 -825.359375 C 302.628906 -825.359375 247.609375 -770.332031 247.609375 -660.28125 L 907.890625 -660.28125 Z M 907.890625 -412.671875 "/></g></g><g transform="translate(1073.200394, 1617.514311)"><g><path d="M 412.671875 -1072.96875 L 412.671875 -1155.5 L 660.28125 -1155.5 L 660.28125 -1072.96875 L 1072.96875 -1072.96875 L 1072.96875 -825.359375 L 990.421875 -825.359375 L 990.421875 -247.609375 L 1072.96875 -247.609375 L 1072.96875 0 L 990.421875 0 C 825.347656 0 742.8125 -82.535156 742.8125 -247.609375 L 742.8125 -412.671875 L 330.140625 -412.671875 L 330.140625 -247.609375 C 330.140625 -82.535156 247.601562 0 82.53125 0 L 0 0 L 0 -247.609375 L 82.53125 -247.609375 L 82.53125 -825.359375 L 0 -825.359375 L 0 -1072.96875 Z M 742.8125 -825.359375 L 330.140625 -825.359375 L 330.140625 -660.28125 L 742.8125 -660.28125 Z M 742.8125 -825.359375 "/></g></g></g></svg>