<?xml version="1.0" standalone="no"?>
<!DOCTYPE svg PUBLIC "-//W3C//DTD SVG 20010904//EN"
 "http://www.w3.org/TR/2001/REC-SVG-20010904/DTD/svg10.dtd">
<svg version="1.0" xmlns="http://www.w3.org/2000/svg"
 width="2048.000000pt" height="2048.000000pt" viewBox="0 0 2048.000000 2048.000000"
 preserveAspectRatio="xMidYMid meet">

<g transform="translate(0.000000,2048.000000) scale(0.100000,-0.100000)"
fill="#000000" stroke="none">
<path d="M11984 14489 c-114 -120 -389 -251 -684 -324 -332 -83 -580 -113
-980 -122 -550 -12 -1025 51 -1427 188 -150 51 -347 147 -406 199 -58 51 -82
53 -73 6 9 -46 174 -518 185 -529 6 -6 32 -12 59 -15 l50 -4 11 -59 c7 -32 14
-72 16 -90 2 -17 6 -33 8 -36 3 -2 94 -7 204 -11 l198 -7 5 -70 c4 -61 8 -71
28 -80 20 -9 22 -16 20 -60 l-3 -50 -93 -5 c-105 -6 -112 -10 -112 -79 l0 -44
-67 7 c-196 18 -272 19 -278 5 -6 -19 -35 -337 -35 -394 l0 -45 286 0 287 0
-7 -132 c-3 -73 -9 -330 -12 -571 l-7 -438 159 3 159 3 3 558 2 557 333 0
c182 0 518 3 744 7 l413 6 2 -604 3 -604 119 -3 c71 -2 123 1 131 8 9 8 14
150 19 602 4 326 10 596 12 600 3 5 135 8 294 8 159 0 291 3 293 8 5 9 -24
435 -30 442 -7 7 -126 2 -227 -11 -101 -13 -100 -13 -110 62 -8 57 -10 58
-131 61 l-80 3 -3 42 c-3 37 0 42 20 45 22 3 22 6 19 85 -2 63 1 84 11 87 7 3
102 9 212 13 l198 8 22 85 c27 105 29 108 71 116 30 5 38 14 61 63 76 164 159
402 169 485 7 51 6 56 -12 56 -11 0 -32 -14 -49 -31z m-1070 -852 c3 -18 3
-48 0 -65 -6 -28 -4 -32 14 -32 35 0 52 -11 52 -35 0 -51 -6 -55 -99 -55 -93
0 -115 -7 -105 -33 3 -10 3 -28 0 -42 -6 -25 -8 -25 -114 -25 -59 0 -150 3
-203 6 l-97 7 -4 146 c-3 80 -3 149 -1 154 2 4 127 7 277 7 l274 0 6 -33z
m-821 -129 c-3 -84 -8 -156 -12 -160 -3 -4 -95 -8 -203 -10 l-197 -3 -3 55 -3
55 -97 3 c-94 3 -98 4 -104 27 -8 31 -1 41 36 48 30 6 30 7 30 72 l0 65 279 0
279 0 -5 -152z"/>
<path d="M5700 11776 c-30 -12 -84 -30 -120 -41 -85 -24 -98 -37 -102 -94 l-3
-46 -212 -3 -213 -2 0 -265 0 -265 -105 0 -105 0 0 265 0 265 -165 0 -165 0 0
-265 0 -265 -267 2 -268 3 -3 263 -2 262 -160 0 -160 0 -2 -262 -3 -263 -50
-5 -50 -5 -26 -70 c-52 -139 -72 -200 -73 -225 -1 -25 0 -25 99 -30 l100 -5 0
-100 0 -100 -47 -3 c-35 -2 -51 -8 -58 -22 -21 -40 -100 -291 -95 -300 4 -6
63 -10 135 -10 193 0 285 34 344 129 33 53 38 80 45 251 l6 155 268 3 267 2 0
-265 c0 -222 2 -265 14 -265 14 0 186 55 274 87 l42 16 0 213 0 214 45 0 c56
0 62 9 111 158 24 76 40 109 45 100 5 -7 9 -126 9 -265 0 -274 7 -328 55 -409
32 -54 83 -88 163 -109 52 -13 129 -15 514 -13 l453 3 3 697 2 698 -212 2
-213 3 -3 103 -3 102 -27 -1 c-15 0 -52 -11 -82 -23z m210 -881 l0 -375 -265
0 -265 0 0 368 c0 203 3 372 7 375 3 4 123 7 265 7 l258 0 0 -375z"/>
<path d="M8650 11752 l-135 -47 -3 -51 c-2 -44 -6 -53 -25 -58 -12 -3 -135 -6
-272 -6 l-251 0 -18 -57 c-41 -127 -48 -149 -57 -165 -5 -9 -12 -35 -15 -58
l-7 -40 95 0 c69 0 99 -4 107 -14 8 -9 11 -116 9 -372 l-3 -359 -45 -3 c-24
-2 -50 -8 -56 -13 -11 -9 -26 -47 -58 -149 -10 -30 -21 -64 -26 -75 -25 -60
-28 -83 -13 -89 33 -13 260 -6 313 10 155 46 197 120 208 364 l7 155 265 0
265 0 6 -165 c5 -141 9 -171 27 -206 44 -87 93 -124 197 -153 45 -12 185 -15
200 -3 15 10 109 301 101 310 -4 4 -51 9 -104 12 l-97 5 -3 364 c-2 285 1 366
10 373 7 4 29 8 49 8 20 0 41 6 47 13 10 12 102 280 102 297 0 6 -112 10 -297
10 -164 0 -308 3 -320 6 -21 6 -22 13 -25 103 -3 88 -5 96 -23 98 -11 1 -81
-20 -155 -45z m278 -490 c9 -6 12 -34 10 -103 l-3 -94 -265 0 -265 0 -3 94
c-2 69 1 97 10 103 7 4 123 8 258 8 135 0 251 -4 258 -8z"/>
<path d="M12655 11755 c-168 -59 -155 -50 -155 -105 0 -34 -4 -50 -16 -54 -9
-3 -154 -6 -324 -6 l-308 0 -10 -27 c-34 -88 -82 -245 -82 -267 0 -25 0 -25
98 -28 l97 -3 0 -370 0 -370 -41 -3 c-23 -2 -49 -11 -57 -20 -19 -21 -109
-290 -101 -303 3 -5 62 -9 131 -9 210 0 302 38 361 149 31 59 35 116 41 516
l6 410 100 0 100 0 3 -262 c2 -200 5 -263 15 -263 13 0 101 28 207 66 36 13
71 24 78 24 25 0 32 55 32 246 l0 195 103 -3 102 -3 5 -425 c3 -234 9 -434 14
-445 35 -86 59 -120 106 -150 56 -35 135 -55 221 -55 81 0 109 12 109 48 0 9
11 46 24 82 46 129 58 170 52 185 -4 11 -29 15 -103 17 l-98 3 -3 350 c-1 193
0 360 3 373 5 19 12 22 49 22 44 0 76 21 76 51 0 7 11 43 24 79 37 102 56 164
56 177 0 10 -84 13 -367 15 l-368 3 -5 100 c-5 98 -5 100 -30 101 -14 1 -79
-17 -145 -41z"/>
<path d="M2491 11575 c-135 -33 -248 -121 -297 -231 -47 -106 -55 -163 -52
-394 l3 -215 428 -3 427 -2 0 -24 c0 -32 -19 -85 -42 -119 -42 -60 -54 -62
-398 -67 l-315 -5 -52 -154 c-28 -85 -50 -158 -47 -163 3 -4 165 -8 360 -8
285 0 370 3 431 16 190 39 302 134 357 304 21 64 36 229 36 396 0 79 -1 145
-2 146 -2 1 -196 5 -433 8 l-430 5 4 44 c4 60 28 98 86 136 28 19 52 20 344
25 265 4 315 7 322 20 9 15 99 284 99 294 0 3 -174 6 -387 5 -282 -1 -403 -5
-442 -14z"/>
<path d="M6565 11578 c-3 -7 -6 -125 -7 -263 l-3 -250 -50 -5 -50 -5 -47 -140
c-26 -77 -47 -149 -45 -160 2 -18 11 -20 97 -25 l95 -5 5 -255 c3 -140 7 -256
8 -257 10 -12 290 71 310 92 4 4 8 101 10 216 l3 209 272 1 c303 0 388 10 461
53 51 30 84 75 109 150 14 42 17 96 17 353 l0 303 -590 0 c-463 0 -592 -3
-595 -12z m854 -322 c8 -9 11 -46 9 -103 l-3 -88 -267 -3 -268 -2 0 98 c0 54
3 102 7 105 3 4 120 7 258 7 204 0 255 -3 264 -14z"/>
<path d="M9590 10895 c0 -389 4 -695 9 -695 10 0 206 63 267 86 l42 16 4 286
c5 304 7 315 60 420 75 148 243 238 482 257 69 5 90 4 97 -6 5 -8 9 -196 9
-419 0 -417 2 -442 42 -516 47 -86 164 -137 304 -132 l79 3 26 70 c52 138 72
200 73 225 1 25 0 25 -99 30 l-100 5 -3 533 -2 532 -247 0 c-136 0 -274 -5
-307 -11 -151 -27 -269 -67 -349 -117 -57 -35 -67 -26 -67 58 l0 70 -160 0
-160 0 0 -695z"/>
<path d="M11207 11583 c-4 -3 -7 -316 -7 -694 l0 -689 23 -5 c12 -3 85 -4 162
-3 l140 3 3 698 2 697 -158 0 c-87 0 -162 -3 -165 -7z"/>
<path d="M13791 11572 c-17 -31 -91 -261 -91 -281 0 -19 8 -21 98 -23 l97 -3
3 -102 3 -102 -53 -3 -53 -3 -47 -140 c-66 -196 -69 -185 50 -185 l97 0 17
-111 c38 -244 150 -366 381 -413 60 -13 141 -16 374 -16 164 0 303 4 309 8 17
10 107 289 100 307 -5 13 -51 15 -356 15 -324 0 -354 1 -388 19 -20 10 -45 27
-54 38 -24 27 -48 87 -48 123 l0 30 363 0 c275 0 367 3 380 13 9 6 38 78 65
159 39 118 46 148 35 153 -8 3 -201 5 -429 5 l-415 0 3 103 3 102 372 5 c204
3 373 7 376 10 4 5 62 172 92 268 l13 42 -644 0 c-609 0 -644 -1 -653 -18z"/>
<path d="M15729 11563 c-26 -68 -89 -263 -89 -277 0 -12 18 -16 98 -18 l97 -3
3 -102 3 -102 -52 -3 c-57 -3 -52 3 -93 -128 -10 -30 -21 -64 -25 -75 -48
-124 -48 -124 71 -127 l103 -3 11 -90 c13 -113 29 -167 69 -230 69 -108 165
-170 310 -199 65 -13 136 -16 384 -14 l305 3 16 45 c58 154 84 245 76 267 -4
10 -73 13 -353 13 -318 0 -352 2 -389 19 -47 21 -76 58 -94 118 -23 77 -44 73
362 73 200 0 368 4 374 8 14 9 115 303 108 314 -3 4 -196 8 -430 8 l-425 0 3
103 3 102 374 5 375 5 16 45 c28 72 62 173 70 205 4 17 11 38 15 48 7 16 -28
17 -639 17 l-646 0 -11 -27z"/>
<path d="M17525 11580 c-11 -5 -30 -9 -42 -9 -12 -1 -48 -13 -80 -28 -143 -66
-211 -160 -249 -342 -18 -86 -20 -441 -2 -459 9 -9 118 -12 430 -12 l418 0 0
-37 c-1 -51 -27 -100 -73 -137 l-39 -31 -313 -5 c-190 -3 -318 -9 -323 -15 -6
-5 -32 -76 -59 -157 -40 -118 -47 -148 -36 -153 8 -3 170 -5 359 -5 346 0 448
8 524 42 14 6 41 18 60 27 19 9 62 43 95 77 107 108 139 238 133 544 l-3 175
-427 3 -428 2 0 38 c0 43 34 107 71 134 43 33 94 38 385 38 220 0 284 3 292
13 11 13 102 279 102 297 0 13 -766 12 -795 0z"/>
<path d="M15204 10507 c-2 -7 -3 -80 -2 -162 l3 -150 155 0 155 0 3 154 c2
117 -1 156 -10 163 -7 4 -77 8 -156 8 -108 0 -144 -3 -148 -13z"/>
</g>
</svg>
