<svg xmlns="http://www.w3.org/2000/svg" xmlns:xlink="http://www.w3.org/1999/xlink" width="1000" zoomAndPan="magnify" viewBox="0 0 750 149.999998" height="200" preserveAspectRatio="xMidYMid meet" version="1.0"><defs><g/><clipPath id="4cb888859e"><path d="M 82.464844 5.816406 L 171.714844 5.816406 L 171.714844 120.566406 L 82.464844 120.566406 Z M 82.464844 5.816406 " clip-rule="nonzero"/></clipPath></defs><g fill="#2970db" fill-opacity="1"><g transform="translate(240.329494, 95.335896)"><g><path d="M 23.140625 -60.171875 L 23.140625 -64.796875 L 37.03125 -64.796875 L 37.03125 -60.171875 L 60.171875 -60.171875 L 60.171875 -46.28125 L 55.546875 -46.28125 L 55.546875 -13.890625 L 60.171875 -13.890625 L 60.171875 0 L 55.546875 0 C 46.285156 0 41.65625 -4.628906 41.65625 -13.890625 L 41.65625 -23.140625 L 18.515625 -23.140625 L 18.515625 -13.890625 C 18.515625 -4.628906 13.882812 0 4.625 0 L 0 0 L 0 -13.890625 L 4.625 -13.890625 L 4.625 -46.28125 L 0 -46.28125 L 0 -60.171875 Z M 41.65625 -46.28125 L 18.515625 -46.28125 L 18.515625 -37.03125 L 41.65625 -37.03125 Z M 41.65625 -46.28125 "/></g></g></g><g fill="#2970db" fill-opacity="1"><g transform="translate(305.129371, 95.335896)"><g><path d="M 41.65625 -46.28125 L 18.515625 -46.28125 L 18.515625 -41.65625 C 18.515625 -23.144531 28.789062 -13.890625 49.34375 -13.890625 L 55.546875 -13.890625 L 55.546875 0 L 49.34375 0 C 19.53125 0 4.625 -13.882812 4.625 -41.65625 L 4.625 -46.28125 L 0 -46.28125 L 0 -60.171875 L 55.546875 -60.171875 L 55.546875 -37.03125 L 41.65625 -37.03125 Z M 41.65625 -46.28125 "/></g></g></g><g fill="#2970db" fill-opacity="1"><g transform="translate(365.300686, 95.335896)"><g><path d="M 41.65625 -46.28125 L 18.515625 -46.28125 L 18.515625 -41.65625 C 18.515625 -23.144531 28.789062 -13.890625 49.34375 -13.890625 L 55.546875 -13.890625 L 55.546875 0 L 49.34375 0 C 19.53125 0 4.625 -13.882812 4.625 -41.65625 L 4.625 -46.28125 L 0 -46.28125 L 0 -60.171875 L 55.546875 -60.171875 L 55.546875 -37.03125 L 41.65625 -37.03125 Z M 41.65625 -46.28125 "/></g></g></g><g fill="#2970db" fill-opacity="1"><g transform="translate(425.472, 95.335896)"><g><path d="M 18.515625 -37.03125 L 46.28125 -37.03125 L 46.28125 -23.140625 L 18.515625 -23.140625 C 18.515625 -16.972656 21.597656 -13.890625 27.765625 -13.890625 L 55.546875 -13.890625 L 55.546875 0 L 27.765625 0 C 12.335938 0 4.625 -7.710938 4.625 -23.140625 L 0 -23.140625 L 0 -37.03125 L 4.625 -37.03125 L 4.625 -46.28125 L 0 -46.28125 L 0 -60.171875 L 55.546875 -60.171875 L 55.546875 -46.28125 L 18.515625 -46.28125 Z M 18.515625 -37.03125 "/></g></g></g><g fill="#2970db" fill-opacity="1"><g transform="translate(485.643315, 95.335896)"><g><path d="M 18.515625 -13.890625 L 32.40625 -13.890625 C 38.570312 -13.890625 41.65625 -16.972656 41.65625 -23.140625 L 41.65625 -46.28125 L 18.515625 -46.28125 Z M 0 0 L 0 -13.890625 L 4.625 -13.890625 L 4.625 -46.28125 L 0 -46.28125 L 0 -60.171875 L 55.546875 -60.171875 L 55.546875 -23.140625 C 55.546875 -7.710938 47.832031 0 32.40625 0 Z M 0 0 "/></g></g></g><g fill="#2970db" fill-opacity="1"><g transform="translate(545.814629, 95.335896)"><g><path d="M 18.515625 -37.03125 L 46.28125 -37.03125 L 46.28125 -23.140625 L 18.515625 -23.140625 C 18.515625 -16.972656 21.597656 -13.890625 27.765625 -13.890625 L 55.546875 -13.890625 L 55.546875 0 L 27.765625 0 C 12.335938 0 4.625 -7.710938 4.625 -23.140625 L 0 -23.140625 L 0 -37.03125 L 4.625 -37.03125 L 4.625 -46.28125 L 0 -46.28125 L 0 -60.171875 L 55.546875 -60.171875 L 55.546875 -46.28125 L 18.515625 -46.28125 Z M 18.515625 -37.03125 "/></g></g></g><g fill="#2970db" fill-opacity="1"><g transform="translate(605.985944, 95.335896)"><g><path d="M 18.515625 -46.28125 L 18.515625 -37.03125 L 41.65625 -37.03125 L 41.65625 -46.28125 Z M 37.03125 -23.140625 C 37.03125 -16.972656 40.113281 -13.890625 46.28125 -13.890625 L 55.546875 -13.890625 L 55.546875 0 L 46.28125 0 C 30.851562 0 23.140625 -7.710938 23.140625 -23.140625 L 18.515625 -23.140625 L 18.515625 0 L 4.625 0 L 4.625 -23.140625 L 0 -23.140625 L 0 -37.03125 L 4.625 -37.03125 L 4.625 -60.171875 L 55.546875 -60.171875 L 55.546875 -37.03125 C 55.546875 -27.769531 50.914062 -23.140625 41.65625 -23.140625 Z M 37.03125 -23.140625 "/></g></g></g><g clip-path="url(#4cb888859e)"><path fill="#2970db" d="M 171.398438 111.875 C 171.398438 81.261719 151.472656 56.460938 126.929688 56.460938 C 102.390625 56.460938 82.464844 81.261719 82.464844 111.875 C 82.464844 116.648438 102.390625 120.539062 126.929688 120.539062 C 151.472656 120.539062 171.398438 116.648438 171.398438 111.875 Z M 126.929688 5.820312 C 140.316406 5.820312 151.164062 16.664062 151.164062 30.050781 C 151.164062 43.4375 140.316406 54.28125 126.929688 54.28125 C 113.542969 54.28125 102.699219 43.4375 102.699219 30.050781 C 102.699219 16.664062 113.542969 5.820312 126.929688 5.820312 Z M 126.929688 5.820312 " fill-opacity="1" fill-rule="evenodd"/></g></svg>