<svg xmlns="http://www.w3.org/2000/svg" xmlns:xlink="http://www.w3.org/1999/xlink" width="40" zoomAndPan="magnify" viewBox="0 0 30 30.000001" height="40" preserveAspectRatio="xMidYMid meet" version="1.0"><defs><clipPath id="2a4df8fcd3"><path d="M 2.554688 3.992188 L 26.507812 3.992188 L 26.507812 25.039062 L 2.554688 25.039062 Z M 2.554688 3.992188 " clip-rule="nonzero"/></clipPath></defs><g clip-path="url(#2a4df8fcd3)"><path fill="#2970db" d="M 21.660156 23.066406 C 21.660156 22.507812 21.207031 22.054688 20.648438 22.054688 C 20.09375 22.054688 19.640625 22.507812 19.640625 23.066406 C 19.640625 23.625 20.09375 24.078125 20.648438 24.078125 C 21.207031 24.078125 21.660156 23.625 21.660156 23.066406 Z M 22.617188 23.066406 C 22.617188 24.152344 21.734375 25.03125 20.648438 25.03125 C 19.5625 25.03125 18.683594 24.152344 18.683594 23.066406 C 18.683594 21.980469 19.5625 21.097656 20.648438 21.097656 C 21.734375 21.097656 22.617188 21.980469 22.617188 23.066406 Z M 13.144531 23.066406 C 13.144531 22.507812 12.691406 22.054688 12.132812 22.054688 C 11.578125 22.054688 11.125 22.507812 11.125 23.066406 C 11.125 23.625 11.578125 24.078125 12.132812 24.078125 C 12.691406 24.078125 13.144531 23.625 13.144531 23.066406 Z M 14.101562 23.066406 C 14.101562 24.152344 13.21875 25.03125 12.132812 25.03125 C 11.050781 25.03125 10.167969 24.152344 10.167969 23.066406 C 10.167969 21.980469 11.050781 21.097656 12.132812 21.097656 C 13.21875 21.097656 14.101562 21.980469 14.101562 23.066406 Z M 26.332031 7.542969 C 26.539062 7.808594 26.609375 8.144531 26.527344 8.46875 L 24.539062 16.238281 C 24.417969 16.714844 23.992188 17.046875 23.5 17.046875 L 9.578125 17.046875 L 10.042969 18.867188 C 10.109375 19.117188 10.332031 19.292969 10.589844 19.292969 L 23.710938 19.292969 C 23.972656 19.292969 24.1875 19.503906 24.1875 19.769531 C 24.1875 20.035156 23.972656 20.25 23.710938 20.25 L 10.589844 20.25 C 9.894531 20.25 9.289062 19.777344 9.117188 19.105469 L 5.503906 4.953125 L 3.035156 4.953125 C 2.769531 4.953125 2.554688 4.738281 2.554688 4.476562 C 2.554688 4.210938 2.769531 3.996094 3.035156 3.996094 L 5.761719 3.996094 C 6.046875 3.996094 6.296875 4.191406 6.367188 4.46875 L 9.335938 16.089844 L 23.5 16.089844 C 23.554688 16.089844 23.601562 16.054688 23.613281 16.003906 L 25.597656 8.230469 C 25.609375 8.1875 25.59375 8.152344 25.578125 8.132812 C 25.5625 8.109375 25.53125 8.085938 25.484375 8.085938 L 9.6875 8.085938 C 9.421875 8.085938 9.207031 7.871094 9.207031 7.609375 C 9.207031 7.34375 9.421875 7.128906 9.6875 7.128906 L 25.484375 7.128906 C 25.820312 7.128906 26.128906 7.28125 26.332031 7.542969 " fill-opacity="1" fill-rule="nonzero"/><path fill="#2970db" d="M 21.660156 23.066406 C 21.660156 22.507812 21.207031 22.054688 20.648438 22.054688 C 20.09375 22.054688 19.640625 22.507812 19.640625 23.066406 C 19.640625 23.625 20.09375 24.078125 20.648438 24.078125 C 21.207031 24.078125 21.660156 23.625 21.660156 23.066406 Z M 22.617188 23.066406 C 22.617188 24.152344 21.734375 25.03125 20.648438 25.03125 C 19.5625 25.03125 18.683594 24.152344 18.683594 23.066406 C 18.683594 21.980469 19.5625 21.097656 20.648438 21.097656 C 21.734375 21.097656 22.617188 21.980469 22.617188 23.066406 Z M 13.144531 23.066406 C 13.144531 22.507812 12.691406 22.054688 12.132812 22.054688 C 11.578125 22.054688 11.125 22.507812 11.125 23.066406 C 11.125 23.625 11.578125 24.078125 12.132812 24.078125 C 12.691406 24.078125 13.144531 23.625 13.144531 23.066406 Z M 14.101562 23.066406 C 14.101562 24.152344 13.21875 25.03125 12.132812 25.03125 C 11.050781 25.03125 10.167969 24.152344 10.167969 23.066406 C 10.167969 21.980469 11.050781 21.097656 12.132812 21.097656 C 13.21875 21.097656 14.101562 21.980469 14.101562 23.066406 Z M 26.332031 7.542969 C 26.539062 7.808594 26.609375 8.144531 26.527344 8.46875 L 24.539062 16.238281 C 24.417969 16.714844 23.992188 17.046875 23.5 17.046875 L 9.578125 17.046875 L 10.042969 18.867188 C 10.109375 19.117188 10.332031 19.292969 10.589844 19.292969 L 23.710938 19.292969 C 23.972656 19.292969 24.1875 19.503906 24.1875 19.769531 C 24.1875 20.035156 23.972656 20.25 23.710938 20.25 L 10.589844 20.25 C 9.894531 20.25 9.289062 19.777344 9.117188 19.105469 L 5.503906 4.953125 L 3.035156 4.953125 C 2.769531 4.953125 2.554688 4.738281 2.554688 4.476562 C 2.554688 4.210938 2.769531 3.996094 3.035156 3.996094 L 5.761719 3.996094 C 6.046875 3.996094 6.296875 4.191406 6.367188 4.46875 L 9.335938 16.089844 L 23.5 16.089844 C 23.554688 16.089844 23.601562 16.054688 23.613281 16.003906 L 25.597656 8.230469 C 25.609375 8.1875 25.59375 8.152344 25.578125 8.132812 C 25.5625 8.109375 25.53125 8.085938 25.484375 8.085938 L 9.6875 8.085938 C 9.421875 8.085938 9.207031 7.871094 9.207031 7.609375 C 9.207031 7.34375 9.421875 7.128906 9.6875 7.128906 L 25.484375 7.128906 C 25.820312 7.128906 26.128906 7.28125 26.332031 7.542969 " fill-opacity="1" fill-rule="nonzero"/></g></svg>