<svg xmlns="http://www.w3.org/2000/svg" xmlns:xlink="http://www.w3.org/1999/xlink" width="1000" zoomAndPan="magnify" viewBox="0 0 750 149.999998" height="200" preserveAspectRatio="xMidYMid meet" version="1.0"><defs><g/><clipPath id="725c942849"><path d="M 36.371094 18.398438 L 144 18.398438 L 144 112 L 36.371094 112 Z M 36.371094 18.398438 " clip-rule="nonzero"/></clipPath><clipPath id="b93b061cf7"><path d="M 74 116 L 91 116 L 91 131.648438 L 74 131.648438 Z M 74 116 " clip-rule="nonzero"/></clipPath><clipPath id="5de1b3cbe1"><path d="M 110 116 L 127 116 L 127 131.648438 L 110 131.648438 Z M 110 116 " clip-rule="nonzero"/></clipPath></defs><g clip-path="url(#725c942849)"><path fill="#2970db" d="M 128.839844 100.726562 L 75.570312 100.726562 C 75.265625 100.738281 74.964844 100.714844 74.664062 100.667969 C 74.363281 100.617188 74.070312 100.535156 73.785156 100.425781 C 73.5 100.316406 73.230469 100.179688 72.972656 100.015625 C 72.71875 99.851562 72.480469 99.664062 72.261719 99.453125 C 72.042969 99.238281 71.84375 99.007812 71.671875 98.757812 C 71.5 98.507812 71.355469 98.242188 71.234375 97.960938 C 71.117188 97.679688 71.027344 97.390625 70.964844 97.089844 C 70.90625 96.792969 70.875 96.492188 70.875 96.1875 C 70.875 95.882812 70.90625 95.578125 70.964844 95.28125 C 71.027344 94.980469 71.117188 94.691406 71.234375 94.410156 C 71.355469 94.132812 71.5 93.867188 71.671875 93.613281 C 71.84375 93.363281 72.042969 93.132812 72.261719 92.917969 C 72.480469 92.707031 72.71875 92.519531 72.972656 92.355469 C 73.230469 92.191406 73.5 92.054688 73.785156 91.945312 C 74.070312 91.835938 74.363281 91.757812 74.664062 91.707031 C 74.964844 91.65625 75.265625 91.632812 75.570312 91.644531 L 128.839844 91.644531 C 129.425781 91.644531 129.992188 91.546875 130.546875 91.355469 C 131.097656 91.160156 131.605469 90.878906 132.0625 90.515625 C 132.519531 90.148438 132.902344 89.714844 133.210938 89.21875 C 133.519531 88.722656 133.738281 88.1875 133.867188 87.617188 L 143.554688 44.027344 C 143.636719 43.652344 143.679688 43.269531 143.675781 42.886719 C 143.675781 42.5 143.628906 42.121094 143.542969 41.746094 C 143.453125 41.371094 143.324219 41.007812 143.15625 40.664062 C 142.988281 40.316406 142.785156 39.992188 142.542969 39.691406 C 142.300781 39.394531 142.03125 39.121094 141.726562 38.882812 C 141.425781 38.644531 141.101562 38.441406 140.753906 38.273438 C 140.40625 38.109375 140.042969 37.984375 139.667969 37.898438 C 139.292969 37.8125 138.914062 37.769531 138.527344 37.769531 L 65.882812 37.769531 C 65.511719 37.769531 65.148438 37.804688 64.785156 37.882812 L 61.214844 22.386719 C 61.085938 21.816406 60.863281 21.289062 60.554688 20.796875 C 60.242188 20.304688 59.859375 19.875 59.402344 19.515625 C 58.949219 19.152344 58.445312 18.875 57.894531 18.683594 C 57.347656 18.492188 56.78125 18.398438 56.199219 18.398438 L 41.667969 18.398438 C 41.328125 18.398438 40.996094 18.429688 40.664062 18.496094 C 40.332031 18.5625 40.011719 18.660156 39.699219 18.789062 C 39.386719 18.917969 39.089844 19.078125 38.808594 19.265625 C 38.527344 19.453125 38.265625 19.664062 38.027344 19.902344 C 37.789062 20.144531 37.578125 20.402344 37.386719 20.683594 C 37.199219 20.964844 37.042969 21.261719 36.914062 21.574219 C 36.785156 21.886719 36.6875 22.207031 36.621094 22.539062 C 36.554688 22.871094 36.519531 23.203125 36.519531 23.542969 C 36.519531 23.878906 36.554688 24.214844 36.621094 24.546875 C 36.6875 24.878906 36.785156 25.199219 36.914062 25.511719 C 37.042969 25.824219 37.199219 26.121094 37.386719 26.402344 C 37.578125 26.683594 37.789062 26.941406 38.027344 27.179688 C 38.265625 27.421875 38.527344 27.632812 38.808594 27.820312 C 39.089844 28.007812 39.386719 28.167969 39.699219 28.296875 C 40.011719 28.425781 40.332031 28.523438 40.664062 28.589844 C 40.996094 28.65625 41.328125 28.6875 41.667969 28.6875 L 52.101562 28.6875 L 65.234375 85.582031 C 64.707031 86.09375 64.222656 86.640625 63.777344 87.222656 C 63.332031 87.808594 62.933594 88.417969 62.578125 89.0625 C 62.226562 89.703125 61.921875 90.367188 61.664062 91.054688 C 61.410156 91.742188 61.207031 92.445312 61.054688 93.164062 C 60.90625 93.882812 60.808594 94.605469 60.765625 95.339844 C 60.722656 96.070312 60.734375 96.800781 60.800781 97.53125 C 60.863281 98.261719 60.984375 98.984375 61.15625 99.695312 C 61.328125 100.410156 61.554688 101.105469 61.828125 101.785156 C 62.105469 102.464844 62.429688 103.121094 62.804688 103.75 C 63.175781 104.382812 63.59375 104.980469 64.058594 105.550781 C 64.519531 106.121094 65.023438 106.652344 65.566406 107.144531 C 66.105469 107.640625 66.679688 108.09375 67.289062 108.5 C 67.898438 108.910156 68.535156 109.273438 69.195312 109.585938 C 69.859375 109.902344 70.542969 110.164062 71.242188 110.378906 C 71.945312 110.589844 72.65625 110.75 73.382812 110.859375 C 74.109375 110.964844 74.839844 111.019531 75.570312 111.019531 L 128.839844 111.019531 C 129.175781 111.019531 129.511719 110.984375 129.84375 110.917969 C 130.171875 110.851562 130.496094 110.753906 130.808594 110.625 C 131.121094 110.496094 131.417969 110.339844 131.699219 110.152344 C 131.976562 109.964844 132.238281 109.75 132.476562 109.511719 C 132.714844 109.273438 132.929688 109.011719 133.117188 108.730469 C 133.304688 108.449219 133.464844 108.152344 133.59375 107.839844 C 133.722656 107.527344 133.820312 107.207031 133.886719 106.875 C 133.953125 106.542969 133.984375 106.210938 133.984375 105.871094 C 133.984375 105.535156 133.953125 105.199219 133.886719 104.867188 C 133.820312 104.535156 133.722656 104.214844 133.59375 103.902344 C 133.464844 103.589844 133.304688 103.292969 133.117188 103.011719 C 132.929688 102.734375 132.714844 102.472656 132.476562 102.234375 C 132.238281 101.996094 131.976562 101.78125 131.699219 101.59375 C 131.417969 101.40625 131.121094 101.246094 130.808594 101.117188 C 130.496094 100.988281 130.171875 100.890625 129.84375 100.824219 C 129.511719 100.757812 129.175781 100.726562 128.839844 100.726562 Z M 128.839844 100.726562 " fill-opacity="1" fill-rule="nonzero"/></g><g clip-path="url(#b93b061cf7)"><path fill="#2970db" d="M 90.097656 123.882812 C 90.097656 124.390625 90.046875 124.890625 89.949219 125.386719 C 89.851562 125.882812 89.703125 126.367188 89.511719 126.835938 C 89.316406 127.304688 89.078125 127.75 88.796875 128.171875 C 88.515625 128.589844 88.195312 128.980469 87.835938 129.339844 C 87.476562 129.699219 87.089844 130.019531 86.667969 130.300781 C 86.246094 130.582031 85.800781 130.820312 85.332031 131.011719 C 84.863281 131.207031 84.382812 131.351562 83.886719 131.453125 C 83.386719 131.550781 82.886719 131.601562 82.378906 131.601562 C 81.871094 131.601562 81.371094 131.550781 80.875 131.453125 C 80.375 131.351562 79.894531 131.207031 79.425781 131.011719 C 78.957031 130.820312 78.511719 130.582031 78.089844 130.300781 C 77.667969 130.019531 77.28125 129.699219 76.921875 129.339844 C 76.5625 128.980469 76.242188 128.589844 75.960938 128.171875 C 75.679688 127.75 75.441406 127.304688 75.25 126.835938 C 75.054688 126.367188 74.90625 125.882812 74.808594 125.386719 C 74.710938 124.890625 74.660156 124.390625 74.660156 123.882812 C 74.660156 123.375 74.710938 122.875 74.808594 122.375 C 74.90625 121.878906 75.054688 121.394531 75.25 120.929688 C 75.441406 120.460938 75.679688 120.015625 75.960938 119.59375 C 76.242188 119.171875 76.5625 118.78125 76.921875 118.425781 C 77.28125 118.066406 77.667969 117.746094 78.089844 117.464844 C 78.511719 117.183594 78.957031 116.945312 79.425781 116.75 C 79.894531 116.558594 80.375 116.410156 80.875 116.3125 C 81.371094 116.214844 81.871094 116.164062 82.378906 116.164062 C 82.886719 116.164062 83.386719 116.214844 83.886719 116.3125 C 84.382812 116.410156 84.863281 116.558594 85.332031 116.75 C 85.800781 116.945312 86.246094 117.183594 86.667969 117.464844 C 87.089844 117.746094 87.476562 118.066406 87.835938 118.425781 C 88.195312 118.78125 88.515625 119.171875 88.796875 119.59375 C 89.078125 120.015625 89.316406 120.460938 89.511719 120.929688 C 89.703125 121.394531 89.851562 121.878906 89.949219 122.375 C 90.046875 122.875 90.097656 123.375 90.097656 123.882812 Z M 90.097656 123.882812 " fill-opacity="1" fill-rule="nonzero"/></g><g clip-path="url(#5de1b3cbe1)"><path fill="#2970db" d="M 126.117188 123.882812 C 126.117188 124.390625 126.066406 124.890625 125.96875 125.386719 C 125.871094 125.882812 125.722656 126.367188 125.527344 126.835938 C 125.335938 127.304688 125.097656 127.75 124.816406 128.171875 C 124.535156 128.589844 124.214844 128.980469 123.855469 129.339844 C 123.496094 129.699219 123.109375 130.019531 122.6875 130.300781 C 122.265625 130.582031 121.820312 130.820312 121.351562 131.011719 C 120.882812 131.207031 120.402344 131.351562 119.902344 131.453125 C 119.40625 131.550781 118.90625 131.601562 118.398438 131.601562 C 117.890625 131.601562 117.390625 131.550781 116.890625 131.453125 C 116.394531 131.351562 115.914062 131.207031 115.445312 131.011719 C 114.976562 130.820312 114.53125 130.582031 114.109375 130.300781 C 113.6875 130.019531 113.296875 129.699219 112.941406 129.339844 C 112.582031 128.980469 112.261719 128.589844 111.980469 128.171875 C 111.699219 127.75 111.460938 127.304688 111.265625 126.835938 C 111.074219 126.367188 110.925781 125.882812 110.828125 125.386719 C 110.730469 124.890625 110.679688 124.390625 110.679688 123.882812 C 110.679688 123.375 110.730469 122.875 110.828125 122.375 C 110.925781 121.878906 111.074219 121.394531 111.265625 120.929688 C 111.460938 120.460938 111.699219 120.015625 111.980469 119.59375 C 112.261719 119.171875 112.582031 118.78125 112.941406 118.425781 C 113.296875 118.066406 113.6875 117.746094 114.109375 117.464844 C 114.53125 117.183594 114.976562 116.945312 115.445312 116.75 C 115.914062 116.558594 116.394531 116.410156 116.890625 116.3125 C 117.390625 116.214844 117.890625 116.164062 118.398438 116.164062 C 118.90625 116.164062 119.40625 116.214844 119.902344 116.3125 C 120.402344 116.410156 120.882812 116.558594 121.351562 116.75 C 121.820312 116.945312 122.265625 117.183594 122.6875 117.464844 C 123.109375 117.746094 123.496094 118.066406 123.855469 118.425781 C 124.214844 118.78125 124.535156 119.171875 124.816406 119.59375 C 125.097656 120.015625 125.335938 120.460938 125.527344 120.929688 C 125.722656 121.394531 125.871094 121.878906 125.96875 122.375 C 126.066406 122.875 126.117188 123.375 126.117188 123.882812 Z M 126.117188 123.882812 " fill-opacity="1" fill-rule="nonzero"/></g><g fill="#2970db" fill-opacity="1"><g transform="translate(211.580101, 101.780826)"><g><path d="M 18.578125 -13.9375 C 18.578125 -4.644531 13.929688 0 4.640625 0 L 0 0 L 0 -13.9375 L 4.640625 -13.9375 L 4.640625 -46.453125 L 0 -46.453125 L 0 -60.390625 L 27.875 -60.390625 L 27.875 -65.03125 L 41.8125 -65.03125 L 41.8125 -60.390625 L 69.6875 -60.390625 L 69.6875 -46.453125 L 65.03125 -46.453125 L 65.03125 -13.9375 L 69.6875 -13.9375 L 69.6875 0 L 65.03125 0 C 55.738281 0 51.09375 -4.644531 51.09375 -13.9375 L 51.09375 -46.453125 L 41.8125 -46.453125 L 41.8125 -23.234375 L 27.875 -23.234375 L 27.875 -46.453125 L 18.578125 -46.453125 Z M 18.578125 -13.9375 "/></g></g></g><g fill="#2970db" fill-opacity="1"><g transform="translate(285.898646, 101.780826)"><g><path d="M 0 -60.390625 L 13.9375 -60.390625 L 13.9375 -13.9375 L 18.578125 -13.9375 L 18.578125 0 L 13.9375 0 C 4.644531 0 0 -4.644531 0 -13.9375 Z M 0 -60.390625 "/></g></g></g><g fill="#2970db" fill-opacity="1"><g transform="translate(309.123191, 101.780826)"><g/></g></g><g fill="#2970db" fill-opacity="1"><g transform="translate(332.719329, 101.780826)"><g><path d="M 41.8125 -46.453125 L 18.578125 -46.453125 L 18.578125 -41.8125 C 18.578125 -23.226562 28.890625 -13.9375 49.515625 -13.9375 L 55.75 -13.9375 L 55.75 0 L 49.515625 0 C 19.597656 0 4.640625 -13.9375 4.640625 -41.8125 L 4.640625 -46.453125 L 0 -46.453125 L 0 -60.390625 L 55.75 -60.390625 L 55.75 -37.171875 L 41.8125 -37.171875 Z M 41.8125 -46.453125 "/></g></g></g><g fill="#2970db" fill-opacity="1"><g transform="translate(393.103146, 101.780826)"><g><path d="M 23.234375 -60.390625 L 23.234375 -65.03125 L 37.171875 -65.03125 L 37.171875 -60.390625 L 60.390625 -60.390625 L 60.390625 -46.453125 L 55.75 -46.453125 L 55.75 -13.9375 L 60.390625 -13.9375 L 60.390625 0 L 55.75 0 C 46.457031 0 41.8125 -4.644531 41.8125 -13.9375 L 41.8125 -23.234375 L 18.578125 -23.234375 L 18.578125 -13.9375 C 18.578125 -4.644531 13.929688 0 4.640625 0 L 0 0 L 0 -13.9375 L 4.640625 -13.9375 L 4.640625 -46.453125 L 0 -46.453125 L 0 -60.390625 Z M 41.8125 -46.453125 L 18.578125 -46.453125 L 18.578125 -37.171875 L 41.8125 -37.171875 Z M 41.8125 -46.453125 "/></g></g></g><g fill="#2970db" fill-opacity="1"><g transform="translate(458.131873, 101.780826)"><g><path d="M 18.578125 -46.453125 L 18.578125 -37.171875 L 41.8125 -37.171875 L 41.8125 -46.453125 Z M 37.171875 -23.234375 C 37.171875 -17.035156 40.265625 -13.9375 46.453125 -13.9375 L 55.75 -13.9375 L 55.75 0 L 46.453125 0 C 30.972656 0 23.234375 -7.742188 23.234375 -23.234375 L 18.578125 -23.234375 L 18.578125 0 L 4.640625 0 L 4.640625 -23.234375 L 0 -23.234375 L 0 -37.171875 L 4.640625 -37.171875 L 4.640625 -60.390625 L 55.75 -60.390625 L 55.75 -37.171875 C 55.75 -27.878906 51.101562 -23.234375 41.8125 -23.234375 Z M 37.171875 -23.234375 "/></g></g></g><g fill="#2970db" fill-opacity="1"><g transform="translate(518.51569, 101.780826)"><g><path d="M 18.578125 -46.453125 L 18.578125 -37.171875 L 41.8125 -37.171875 L 41.8125 -46.453125 Z M 37.171875 -23.234375 C 37.171875 -17.035156 40.265625 -13.9375 46.453125 -13.9375 L 55.75 -13.9375 L 55.75 0 L 46.453125 0 C 30.972656 0 23.234375 -7.742188 23.234375 -23.234375 L 18.578125 -23.234375 L 18.578125 0 L 4.640625 0 L 4.640625 -23.234375 L 0 -23.234375 L 0 -37.171875 L 4.640625 -37.171875 L 4.640625 -60.390625 L 55.75 -60.390625 L 55.75 -37.171875 C 55.75 -27.878906 51.101562 -23.234375 41.8125 -23.234375 Z M 37.171875 -23.234375 "/></g></g></g><g fill="#2970db" fill-opacity="1"><g transform="translate(578.899528, 101.780826)"><g><path d="M 0 -60.390625 L 13.9375 -60.390625 L 13.9375 -13.9375 L 18.578125 -13.9375 L 18.578125 0 L 13.9375 0 C 4.644531 0 0 -4.644531 0 -13.9375 Z M 0 -60.390625 "/></g></g></g><g fill="#2970db" fill-opacity="1"><g transform="translate(602.124093, 101.780826)"><g><path d="M 18.578125 -46.453125 L 0 -46.453125 L 0 -60.390625 L 51.09375 -60.390625 L 51.09375 -46.453125 L 32.515625 -46.453125 L 32.515625 -13.9375 L 37.171875 -13.9375 L 37.171875 0 L 32.515625 0 C 23.222656 0 18.578125 -4.644531 18.578125 -13.9375 Z M 18.578125 -46.453125 "/></g></g></g><g fill="#2970db" fill-opacity="1"><g transform="translate(657.863002, 101.780826)"><g><path d="M 13.9375 -46.453125 L 13.9375 -13.9375 L 37.171875 -13.984375 L 37.171875 -46.453125 Z M 32.515625 -60.4375 L 51.09375 -60.4375 L 51.09375 0 L 37.171875 0 L 37.171875 -0.046875 L 13.9375 0 L 0 0 L 0 -60.390625 L 18.578125 -60.390625 L 18.578125 -65.03125 L 32.515625 -65.03125 Z M 32.515625 -60.4375 "/></g></g></g></svg>