<svg xmlns="http://www.w3.org/2000/svg" xmlns:xlink="http://www.w3.org/1999/xlink" width="40" zoomAndPan="magnify" viewBox="0 0 30 30.000001" height="40" preserveAspectRatio="xMidYMid meet" version="1.0"><defs><clipPath id="539c38cd35"><path d="M 10 4.957031 L 20 4.957031 L 20 15 L 10 15 Z M 10 4.957031 " clip-rule="nonzero"/></clipPath><clipPath id="e4e5ba473e"><path d="M 7.28125 15 L 22.523438 15 L 22.523438 23.828125 L 7.28125 23.828125 Z M 7.28125 15 " clip-rule="nonzero"/></clipPath><clipPath id="3050c8302a"><path d="M 10 4.957031 L 20 4.957031 L 20 15 L 10 15 Z M 10 4.957031 " clip-rule="nonzero"/></clipPath><clipPath id="3162416cd7"><path d="M 7.28125 15 L 22.523438 15 L 22.523438 23.828125 L 7.28125 23.828125 Z M 7.28125 15 " clip-rule="nonzero"/></clipPath></defs><g clip-path="url(#539c38cd35)"><path fill="#2970db" d="M 15 14.542969 C 15.3125 14.542969 15.625 14.511719 15.933594 14.449219 C 16.242188 14.390625 16.542969 14.296875 16.832031 14.179688 C 17.125 14.058594 17.398438 13.910156 17.660156 13.734375 C 17.921875 13.558594 18.164062 13.363281 18.386719 13.140625 C 18.609375 12.917969 18.808594 12.675781 18.984375 12.414062 C 19.160156 12.152344 19.308594 11.875 19.425781 11.582031 C 19.546875 11.292969 19.640625 10.992188 19.699219 10.683594 C 19.761719 10.375 19.792969 10.0625 19.792969 9.75 C 19.792969 9.433594 19.761719 9.121094 19.699219 8.8125 C 19.640625 8.503906 19.546875 8.207031 19.425781 7.914062 C 19.308594 7.625 19.160156 7.347656 18.984375 7.085938 C 18.808594 6.824219 18.609375 6.582031 18.386719 6.359375 C 18.164062 6.136719 17.921875 5.9375 17.660156 5.761719 C 17.398438 5.589844 17.125 5.441406 16.832031 5.320312 C 16.542969 5.199219 16.242188 5.109375 15.933594 5.046875 C 15.625 4.984375 15.3125 4.953125 15 4.953125 C 14.683594 4.953125 14.371094 4.984375 14.0625 5.046875 C 13.753906 5.109375 13.453125 5.199219 13.164062 5.320312 C 12.875 5.441406 12.597656 5.589844 12.335938 5.761719 C 12.074219 5.9375 11.832031 6.136719 11.609375 6.359375 C 11.386719 6.582031 11.1875 6.824219 11.011719 7.085938 C 10.835938 7.347656 10.691406 7.625 10.570312 7.914062 C 10.449219 8.207031 10.359375 8.503906 10.296875 8.8125 C 10.234375 9.121094 10.203125 9.433594 10.203125 9.75 C 10.203125 10.0625 10.234375 10.375 10.296875 10.683594 C 10.359375 10.992188 10.449219 11.292969 10.570312 11.582031 C 10.691406 11.875 10.839844 12.148438 11.015625 12.410156 C 11.1875 12.671875 11.386719 12.914062 11.609375 13.136719 C 11.832031 13.359375 12.074219 13.558594 12.335938 13.734375 C 12.597656 13.910156 12.875 14.054688 13.164062 14.175781 C 13.457031 14.296875 13.753906 14.386719 14.0625 14.449219 C 14.371094 14.511719 14.683594 14.542969 15 14.542969 Z M 15 5.785156 C 15.257812 5.785156 15.515625 5.808594 15.773438 5.859375 C 16.027344 5.910156 16.273438 5.984375 16.515625 6.085938 C 16.757812 6.183594 16.984375 6.308594 17.203125 6.453125 C 17.417969 6.597656 17.617188 6.761719 17.800781 6.945312 C 17.988281 7.128906 18.152344 7.328125 18.296875 7.546875 C 18.441406 7.761719 18.5625 7.992188 18.660156 8.230469 C 18.761719 8.472656 18.835938 8.71875 18.886719 8.976562 C 18.9375 9.230469 18.964844 9.488281 18.964844 9.75 C 18.964844 10.007812 18.9375 10.265625 18.886719 10.523438 C 18.835938 10.777344 18.761719 11.027344 18.660156 11.265625 C 18.5625 11.507812 18.441406 11.734375 18.296875 11.953125 C 18.152344 12.167969 17.988281 12.367188 17.800781 12.554688 C 17.617188 12.738281 17.417969 12.902344 17.203125 13.046875 C 16.984375 13.191406 16.757812 13.3125 16.515625 13.414062 C 16.273438 13.511719 16.027344 13.585938 15.773438 13.636719 C 15.515625 13.6875 15.257812 13.714844 15 13.714844 C 14.738281 13.714844 14.480469 13.6875 14.226562 13.636719 C 13.96875 13.585938 13.722656 13.511719 13.480469 13.414062 C 13.242188 13.3125 13.011719 13.191406 12.796875 13.046875 C 12.578125 12.902344 12.378906 12.738281 12.195312 12.554688 C 12.011719 12.367188 11.847656 12.167969 11.703125 11.953125 C 11.558594 11.734375 11.433594 11.507812 11.335938 11.265625 C 11.234375 11.027344 11.160156 10.777344 11.109375 10.523438 C 11.058594 10.265625 11.035156 10.007812 11.035156 9.75 C 11.035156 9.488281 11.058594 9.230469 11.109375 8.976562 C 11.160156 8.71875 11.238281 8.472656 11.335938 8.230469 C 11.4375 7.992188 11.558594 7.761719 11.703125 7.546875 C 11.847656 7.332031 12.011719 7.128906 12.195312 6.945312 C 12.378906 6.761719 12.582031 6.597656 12.796875 6.453125 C 13.011719 6.308594 13.242188 6.1875 13.480469 6.085938 C 13.722656 5.988281 13.96875 5.910156 14.226562 5.859375 C 14.480469 5.808594 14.738281 5.785156 15 5.785156 Z M 15 5.785156 " fill-opacity="1" fill-rule="nonzero"/></g><g clip-path="url(#e4e5ba473e)"><path fill="#2970db" d="M 15 15.308594 C 14.492188 15.308594 13.996094 15.355469 13.5 15.457031 C 13.003906 15.554688 12.523438 15.699219 12.058594 15.894531 C 11.59375 16.085938 11.148438 16.324219 10.730469 16.605469 C 10.3125 16.886719 9.921875 17.203125 9.566406 17.5625 C 9.210938 17.917969 8.890625 18.304688 8.609375 18.726562 C 8.328125 19.144531 8.09375 19.585938 7.898438 20.054688 C 7.707031 20.519531 7.558594 21 7.460938 21.496094 C 7.363281 21.988281 7.3125 22.488281 7.3125 22.992188 C 7.3125 23.136719 7.339844 23.273438 7.394531 23.40625 C 7.449219 23.535156 7.527344 23.652344 7.628906 23.753906 C 7.726562 23.855469 7.84375 23.933594 7.976562 23.988281 C 8.109375 24.042969 8.246094 24.070312 8.386719 24.070312 L 21.609375 24.070312 C 21.964844 24.066406 22.253906 23.925781 22.46875 23.640625 C 22.613281 23.449219 22.683594 23.234375 22.683594 22.992188 C 22.683594 22.488281 22.632812 21.988281 22.535156 21.496094 C 22.4375 21 22.289062 20.519531 22.097656 20.054688 C 21.902344 19.585938 21.667969 19.144531 21.386719 18.726562 C 21.105469 18.304688 20.789062 17.917969 20.429688 17.5625 C 20.074219 17.203125 19.6875 16.886719 19.265625 16.605469 C 18.847656 16.324219 18.40625 16.089844 17.9375 15.894531 C 17.472656 15.703125 16.992188 15.554688 16.496094 15.457031 C 16.003906 15.355469 15.503906 15.308594 15 15.308594 Z M 21.804688 23.140625 C 21.757812 23.207031 21.691406 23.238281 21.609375 23.238281 L 8.386719 23.238281 C 8.292969 23.238281 8.222656 23.199219 8.175781 23.121094 C 8.152344 23.082031 8.140625 23.039062 8.140625 22.992188 C 8.144531 22.542969 8.1875 22.097656 8.277344 21.660156 C 8.367188 21.21875 8.5 20.792969 8.671875 20.378906 C 8.84375 19.964844 9.058594 19.570312 9.308594 19.199219 C 9.558594 18.824219 9.84375 18.480469 10.160156 18.164062 C 10.476562 17.847656 10.824219 17.5625 11.199219 17.316406 C 11.570312 17.066406 11.964844 16.855469 12.382812 16.683594 C 12.796875 16.511719 13.222656 16.382812 13.664062 16.296875 C 14.105469 16.207031 14.550781 16.164062 15 16.164062 C 15.449219 16.164062 15.890625 16.207031 16.332031 16.296875 C 16.773438 16.382812 17.203125 16.511719 17.617188 16.683594 C 18.03125 16.855469 18.425781 17.066406 18.800781 17.316406 C 19.171875 17.5625 19.519531 17.847656 19.835938 18.164062 C 20.15625 18.480469 20.441406 18.824219 20.691406 19.199219 C 20.941406 19.570312 21.152344 19.964844 21.324219 20.378906 C 21.5 20.792969 21.628906 21.21875 21.71875 21.660156 C 21.808594 22.097656 21.855469 22.542969 21.855469 22.992188 C 21.855469 23.046875 21.839844 23.097656 21.804688 23.140625 Z M 21.804688 23.140625 " fill-opacity="1" fill-rule="nonzero"/></g><g clip-path="url(#3050c8302a)"><path fill="#2970db" d="M 15 14.542969 C 15.3125 14.542969 15.625 14.511719 15.933594 14.449219 C 16.242188 14.390625 16.542969 14.296875 16.832031 14.179688 C 17.125 14.058594 17.398438 13.910156 17.660156 13.734375 C 17.921875 13.558594 18.164062 13.363281 18.386719 13.140625 C 18.609375 12.917969 18.808594 12.675781 18.984375 12.414062 C 19.160156 12.152344 19.308594 11.875 19.425781 11.582031 C 19.546875 11.292969 19.640625 10.992188 19.699219 10.683594 C 19.761719 10.375 19.792969 10.0625 19.792969 9.75 C 19.792969 9.433594 19.761719 9.121094 19.699219 8.8125 C 19.640625 8.503906 19.546875 8.207031 19.425781 7.914062 C 19.308594 7.625 19.160156 7.347656 18.984375 7.085938 C 18.808594 6.824219 18.609375 6.582031 18.386719 6.359375 C 18.164062 6.136719 17.921875 5.9375 17.660156 5.761719 C 17.398438 5.589844 17.125 5.441406 16.832031 5.320312 C 16.542969 5.199219 16.242188 5.109375 15.933594 5.046875 C 15.625 4.984375 15.3125 4.953125 15 4.953125 C 14.683594 4.953125 14.371094 4.984375 14.0625 5.046875 C 13.753906 5.109375 13.453125 5.199219 13.164062 5.320312 C 12.875 5.441406 12.597656 5.589844 12.335938 5.761719 C 12.074219 5.9375 11.832031 6.136719 11.609375 6.359375 C 11.386719 6.582031 11.1875 6.824219 11.011719 7.085938 C 10.835938 7.347656 10.691406 7.625 10.570312 7.914062 C 10.449219 8.207031 10.359375 8.503906 10.296875 8.8125 C 10.234375 9.121094 10.203125 9.433594 10.203125 9.75 C 10.203125 10.0625 10.234375 10.375 10.296875 10.683594 C 10.359375 10.992188 10.449219 11.292969 10.570312 11.582031 C 10.691406 11.875 10.839844 12.148438 11.015625 12.410156 C 11.1875 12.671875 11.386719 12.914062 11.609375 13.136719 C 11.832031 13.359375 12.074219 13.558594 12.335938 13.734375 C 12.597656 13.910156 12.875 14.054688 13.164062 14.175781 C 13.457031 14.296875 13.753906 14.386719 14.0625 14.449219 C 14.371094 14.511719 14.683594 14.542969 15 14.542969 Z M 15 5.785156 C 15.257812 5.785156 15.515625 5.808594 15.773438 5.859375 C 16.027344 5.910156 16.273438 5.984375 16.515625 6.085938 C 16.757812 6.183594 16.984375 6.308594 17.203125 6.453125 C 17.417969 6.597656 17.617188 6.761719 17.800781 6.945312 C 17.988281 7.128906 18.152344 7.328125 18.296875 7.546875 C 18.441406 7.761719 18.5625 7.992188 18.660156 8.230469 C 18.761719 8.472656 18.835938 8.71875 18.886719 8.976562 C 18.9375 9.230469 18.964844 9.488281 18.964844 9.75 C 18.964844 10.007812 18.9375 10.265625 18.886719 10.523438 C 18.835938 10.777344 18.761719 11.027344 18.660156 11.265625 C 18.5625 11.507812 18.441406 11.734375 18.296875 11.953125 C 18.152344 12.167969 17.988281 12.367188 17.800781 12.554688 C 17.617188 12.738281 17.417969 12.902344 17.203125 13.046875 C 16.984375 13.191406 16.757812 13.3125 16.515625 13.414062 C 16.273438 13.511719 16.027344 13.585938 15.773438 13.636719 C 15.515625 13.6875 15.257812 13.714844 15 13.714844 C 14.738281 13.714844 14.480469 13.6875 14.226562 13.636719 C 13.96875 13.585938 13.722656 13.511719 13.480469 13.414062 C 13.242188 13.3125 13.011719 13.191406 12.796875 13.046875 C 12.578125 12.902344 12.378906 12.738281 12.195312 12.554688 C 12.011719 12.367188 11.847656 12.167969 11.703125 11.953125 C 11.558594 11.734375 11.433594 11.507812 11.335938 11.265625 C 11.234375 11.027344 11.160156 10.777344 11.109375 10.523438 C 11.058594 10.265625 11.035156 10.007812 11.035156 9.75 C 11.035156 9.488281 11.058594 9.230469 11.109375 8.976562 C 11.160156 8.71875 11.238281 8.472656 11.335938 8.230469 C 11.4375 7.992188 11.558594 7.761719 11.703125 7.546875 C 11.847656 7.332031 12.011719 7.128906 12.195312 6.945312 C 12.378906 6.761719 12.582031 6.597656 12.796875 6.453125 C 13.011719 6.308594 13.242188 6.1875 13.480469 6.085938 C 13.722656 5.988281 13.96875 5.910156 14.226562 5.859375 C 14.480469 5.808594 14.738281 5.785156 15 5.785156 Z M 15 5.785156 " fill-opacity="1" fill-rule="nonzero"/></g><g clip-path="url(#3162416cd7)"><path fill="#2970db" d="M 15 15.308594 C 14.492188 15.308594 13.996094 15.355469 13.5 15.457031 C 13.003906 15.554688 12.523438 15.699219 12.058594 15.894531 C 11.59375 16.085938 11.148438 16.324219 10.730469 16.605469 C 10.3125 16.886719 9.921875 17.203125 9.566406 17.5625 C 9.210938 17.917969 8.890625 18.304688 8.609375 18.726562 C 8.328125 19.144531 8.09375 19.585938 7.898438 20.054688 C 7.707031 20.519531 7.558594 21 7.460938 21.496094 C 7.363281 21.988281 7.3125 22.488281 7.3125 22.992188 C 7.3125 23.136719 7.339844 23.273438 7.394531 23.40625 C 7.449219 23.535156 7.527344 23.652344 7.628906 23.753906 C 7.726562 23.855469 7.84375 23.933594 7.976562 23.988281 C 8.109375 24.042969 8.246094 24.070312 8.386719 24.070312 L 21.609375 24.070312 C 21.964844 24.066406 22.253906 23.925781 22.46875 23.640625 C 22.613281 23.449219 22.683594 23.234375 22.683594 22.992188 C 22.683594 22.488281 22.632812 21.988281 22.535156 21.496094 C 22.4375 21 22.289062 20.519531 22.097656 20.054688 C 21.902344 19.585938 21.667969 19.144531 21.386719 18.726562 C 21.105469 18.304688 20.789062 17.917969 20.429688 17.5625 C 20.074219 17.203125 19.6875 16.886719 19.265625 16.605469 C 18.847656 16.324219 18.40625 16.089844 17.9375 15.894531 C 17.472656 15.703125 16.992188 15.554688 16.496094 15.457031 C 16.003906 15.355469 15.503906 15.308594 15 15.308594 Z M 21.804688 23.140625 C 21.757812 23.207031 21.691406 23.238281 21.609375 23.238281 L 8.386719 23.238281 C 8.292969 23.238281 8.222656 23.199219 8.175781 23.121094 C 8.152344 23.082031 8.140625 23.039062 8.140625 22.992188 C 8.144531 22.542969 8.1875 22.097656 8.277344 21.660156 C 8.367188 21.21875 8.5 20.792969 8.671875 20.378906 C 8.84375 19.964844 9.058594 19.570312 9.308594 19.199219 C 9.558594 18.824219 9.84375 18.480469 10.160156 18.164062 C 10.476562 17.847656 10.824219 17.5625 11.199219 17.316406 C 11.570312 17.066406 11.964844 16.855469 12.382812 16.683594 C 12.796875 16.511719 13.222656 16.382812 13.664062 16.296875 C 14.105469 16.207031 14.550781 16.164062 15 16.164062 C 15.449219 16.164062 15.890625 16.207031 16.332031 16.296875 C 16.773438 16.382812 17.203125 16.511719 17.617188 16.683594 C 18.03125 16.855469 18.425781 17.066406 18.800781 17.316406 C 19.171875 17.5625 19.519531 17.847656 19.835938 18.164062 C 20.15625 18.480469 20.441406 18.824219 20.691406 19.199219 C 20.941406 19.570312 21.152344 19.964844 21.324219 20.378906 C 21.5 20.792969 21.628906 21.21875 21.71875 21.660156 C 21.808594 22.097656 21.855469 22.542969 21.855469 22.992188 C 21.855469 23.046875 21.839844 23.097656 21.804688 23.140625 Z M 21.804688 23.140625 " fill-opacity="1" fill-rule="nonzero"/></g></svg>