<svg xmlns="http://www.w3.org/2000/svg" xmlns:xlink="http://www.w3.org/1999/xlink" width="40" zoomAndPan="magnify" viewBox="0 0 30 30.000001" height="40" preserveAspectRatio="xMidYMid meet" version="1.0"><defs><clipPath id="c88bf08f87"><path d="M 2.554688 3.992188 L 26.839844 3.992188 L 26.839844 25.035156 L 2.554688 25.035156 Z M 2.554688 3.992188 " clip-rule="nonzero"/></clipPath></defs><g clip-path="url(#c88bf08f87)"><path fill="#000000" d="M 21.84375 23.066406 C 21.84375 22.507812 21.382812 22.054688 20.820312 22.054688 C 20.261719 22.054688 19.800781 22.507812 19.800781 23.066406 C 19.800781 23.621094 20.261719 24.074219 20.820312 24.074219 C 21.382812 24.074219 21.84375 23.621094 21.84375 23.066406 Z M 22.808594 23.066406 C 22.808594 24.152344 21.917969 25.03125 20.820312 25.03125 C 19.726562 25.03125 18.835938 24.152344 18.835938 23.066406 C 18.835938 21.980469 19.726562 21.097656 20.820312 21.097656 C 21.917969 21.097656 22.808594 21.980469 22.808594 23.066406 Z M 13.246094 23.066406 C 13.246094 22.507812 12.789062 22.054688 12.226562 22.054688 C 11.664062 22.054688 11.207031 22.507812 11.207031 23.066406 C 11.207031 23.621094 11.664062 24.074219 12.226562 24.074219 C 12.789062 24.074219 13.246094 23.621094 13.246094 23.066406 Z M 14.210938 23.066406 C 14.210938 24.152344 13.320312 25.03125 12.226562 25.03125 C 11.132812 25.03125 10.238281 24.152344 10.238281 23.066406 C 10.238281 21.980469 11.132812 21.097656 12.226562 21.097656 C 13.320312 21.097656 14.210938 21.980469 14.210938 23.066406 Z M 26.5625 7.542969 C 26.769531 7.804688 26.839844 8.144531 26.753906 8.46875 L 24.75 16.238281 C 24.628906 16.714844 24.195312 17.046875 23.699219 17.046875 L 9.648438 17.046875 L 10.117188 18.867188 C 10.179688 19.117188 10.40625 19.289062 10.667969 19.289062 L 23.910156 19.289062 C 24.179688 19.289062 24.394531 19.503906 24.394531 19.769531 C 24.394531 20.035156 24.179688 20.246094 23.910156 20.246094 L 10.667969 20.246094 C 9.964844 20.246094 9.351562 19.777344 9.179688 19.101562 L 5.53125 4.953125 L 3.039062 4.953125 C 2.773438 4.953125 2.554688 4.738281 2.554688 4.472656 C 2.554688 4.210938 2.773438 3.996094 3.039062 3.996094 L 5.789062 3.996094 C 6.082031 3.996094 6.332031 4.1875 6.40625 4.46875 L 9.398438 16.089844 L 23.699219 16.089844 C 23.753906 16.089844 23.800781 16.054688 23.816406 16 L 25.820312 8.230469 C 25.832031 8.183594 25.8125 8.148438 25.796875 8.128906 C 25.78125 8.109375 25.753906 8.085938 25.703125 8.085938 L 9.753906 8.085938 C 9.488281 8.085938 9.269531 7.871094 9.269531 7.605469 C 9.269531 7.339844 9.488281 7.128906 9.753906 7.128906 L 25.703125 7.128906 C 26.042969 7.128906 26.355469 7.277344 26.5625 7.542969 " fill-opacity="1" fill-rule="nonzero"/><path fill="#000000" d="M 21.84375 23.066406 C 21.84375 22.507812 21.382812 22.054688 20.820312 22.054688 C 20.261719 22.054688 19.800781 22.507812 19.800781 23.066406 C 19.800781 23.621094 20.261719 24.074219 20.820312 24.074219 C 21.382812 24.074219 21.84375 23.621094 21.84375 23.066406 Z M 22.808594 23.066406 C 22.808594 24.152344 21.917969 25.03125 20.820312 25.03125 C 19.726562 25.03125 18.835938 24.152344 18.835938 23.066406 C 18.835938 21.980469 19.726562 21.097656 20.820312 21.097656 C 21.917969 21.097656 22.808594 21.980469 22.808594 23.066406 Z M 13.246094 23.066406 C 13.246094 22.507812 12.789062 22.054688 12.226562 22.054688 C 11.664062 22.054688 11.207031 22.507812 11.207031 23.066406 C 11.207031 23.621094 11.664062 24.074219 12.226562 24.074219 C 12.789062 24.074219 13.246094 23.621094 13.246094 23.066406 Z M 14.210938 23.066406 C 14.210938 24.152344 13.320312 25.03125 12.226562 25.03125 C 11.132812 25.03125 10.238281 24.152344 10.238281 23.066406 C 10.238281 21.980469 11.132812 21.097656 12.226562 21.097656 C 13.320312 21.097656 14.210938 21.980469 14.210938 23.066406 Z M 26.5625 7.542969 C 26.769531 7.804688 26.839844 8.144531 26.753906 8.46875 L 24.75 16.238281 C 24.628906 16.714844 24.195312 17.046875 23.699219 17.046875 L 9.648438 17.046875 L 10.117188 18.867188 C 10.179688 19.117188 10.40625 19.289062 10.667969 19.289062 L 23.910156 19.289062 C 24.179688 19.289062 24.394531 19.503906 24.394531 19.769531 C 24.394531 20.035156 24.179688 20.246094 23.910156 20.246094 L 10.667969 20.246094 C 9.964844 20.246094 9.351562 19.777344 9.179688 19.101562 L 5.53125 4.953125 L 3.039062 4.953125 C 2.773438 4.953125 2.554688 4.738281 2.554688 4.472656 C 2.554688 4.210938 2.773438 3.996094 3.039062 3.996094 L 5.789062 3.996094 C 6.082031 3.996094 6.332031 4.1875 6.40625 4.46875 L 9.398438 16.089844 L 23.699219 16.089844 C 23.753906 16.089844 23.800781 16.054688 23.816406 16 L 25.820312 8.230469 C 25.832031 8.183594 25.8125 8.148438 25.796875 8.128906 C 25.78125 8.109375 25.753906 8.085938 25.703125 8.085938 L 9.753906 8.085938 C 9.488281 8.085938 9.269531 7.871094 9.269531 7.605469 C 9.269531 7.339844 9.488281 7.128906 9.753906 7.128906 L 25.703125 7.128906 C 26.042969 7.128906 26.355469 7.277344 26.5625 7.542969 " fill-opacity="1" fill-rule="nonzero"/></g></svg>