<svg xmlns="http://www.w3.org/2000/svg" xmlns:xlink="http://www.w3.org/1999/xlink" width="40" zoomAndPan="magnify" viewBox="0 0 30 30.000001" height="40" preserveAspectRatio="xMidYMid meet" version="1.0"><defs><clipPath id="298eab5c92"><path d="M 3.386719 4.277344 L 26.648438 4.277344 L 26.648438 24.675781 L 3.386719 24.675781 Z M 3.386719 4.277344 " clip-rule="nonzero"/></clipPath><clipPath id="9dab2b5468"><path d="M 4.308594 7.601562 C 2.425781 10.703125 3.75 13.722656 5.417969 15.324219 L 15.167969 24.675781 L 24.710938 15.359375 C 26.261719 13.632812 26.855469 11.804688 26.523438 9.769531 C 26.070312 6.953125 23.746094 4.765625 20.878906 4.453125 C 19.121094 4.265625 17.421875 4.761719 16.097656 5.863281 C 15.738281 6.160156 15.421875 6.492188 15.140625 6.851562 C 14.8125 6.441406 14.425781 6.066406 13.988281 5.734375 C 12.464844 4.574219 10.523438 4.117188 8.65625 4.472656 C 6.890625 4.816406 5.304688 5.953125 4.308594 7.601562 Z M 4.308594 7.601562 " clip-rule="nonzero"/></clipPath></defs><g clip-path="url(#298eab5c92)"><g clip-path="url(#9dab2b5468)"><path fill="#ffffff" d="M 3.386719 4.355469 L 26.648438 4.355469 L 26.648438 24.675781 L 3.386719 24.675781 Z M 3.386719 4.355469 " fill-opacity="1" fill-rule="nonzero"/></g></g></svg>