<svg xmlns="http://www.w3.org/2000/svg" xmlns:xlink="http://www.w3.org/1999/xlink" width="40" zoomAndPan="magnify" viewBox="0 0 30 30.000001" height="40" preserveAspectRatio="xMidYMid meet" version="1.0"><defs><clipPath id="80e6f1cd51"><path d="M 5.238281 4.753906 L 24.761719 4.753906 L 24.761719 24.277344 L 5.238281 24.277344 Z M 5.238281 4.753906 " clip-rule="nonzero"/></clipPath><clipPath id="01249f5fb6"><path d="M 15 4.753906 C 9.609375 4.753906 5.238281 9.125 5.238281 14.515625 C 5.238281 19.90625 9.609375 24.277344 15 24.277344 C 20.390625 24.277344 24.761719 19.90625 24.761719 14.515625 C 24.761719 9.125 20.390625 4.753906 15 4.753906 Z M 15 4.753906 " clip-rule="nonzero"/></clipPath><clipPath id="2e4be7273a"><path d="M 9.195312 8.710938 L 20.804688 8.710938 L 20.804688 20.324219 L 9.195312 20.324219 Z M 9.195312 8.710938 " clip-rule="nonzero"/></clipPath></defs><g clip-path="url(#80e6f1cd51)"><g clip-path="url(#01249f5fb6)"><path fill="#ffffff" d="M 5.238281 4.753906 L 24.761719 4.753906 L 24.761719 24.277344 L 5.238281 24.277344 Z M 5.238281 4.753906 " fill-opacity="1" fill-rule="nonzero"/></g></g><g clip-path="url(#2e4be7273a)"><path fill="#0a0a08" d="M 15 9.757812 C 16.550781 9.757812 16.734375 9.761719 17.347656 9.789062 C 17.914062 9.816406 18.21875 9.910156 18.425781 9.988281 C 18.695312 10.09375 18.890625 10.222656 19.09375 10.425781 C 19.296875 10.628906 19.421875 10.820312 19.527344 11.089844 C 19.605469 11.296875 19.699219 11.605469 19.726562 12.167969 C 19.753906 12.78125 19.761719 12.964844 19.761719 14.515625 C 19.761719 16.066406 19.753906 16.25 19.726562 16.863281 C 19.699219 17.429688 19.605469 17.734375 19.527344 17.941406 C 19.421875 18.210938 19.296875 18.40625 19.09375 18.609375 C 18.890625 18.8125 18.695312 18.9375 18.425781 19.042969 C 18.21875 19.121094 17.914062 19.214844 17.347656 19.242188 C 16.734375 19.269531 16.550781 19.277344 15 19.277344 C 13.449219 19.277344 13.265625 19.269531 12.652344 19.242188 C 12.085938 19.214844 11.78125 19.121094 11.574219 19.042969 C 11.304688 18.9375 11.109375 18.8125 10.90625 18.609375 C 10.703125 18.40625 10.578125 18.210938 10.472656 17.941406 C 10.394531 17.734375 10.300781 17.429688 10.273438 16.863281 C 10.246094 16.25 10.238281 16.066406 10.238281 14.515625 C 10.238281 12.964844 10.246094 12.78125 10.273438 12.167969 C 10.300781 11.605469 10.394531 11.296875 10.472656 11.089844 C 10.578125 10.820312 10.703125 10.628906 10.90625 10.425781 C 11.109375 10.222656 11.304688 10.09375 11.574219 9.988281 C 11.78125 9.910156 12.085938 9.816406 12.652344 9.789062 C 13.265625 9.761719 13.449219 9.757812 15 9.757812 M 15 8.710938 C 13.421875 8.710938 13.226562 8.714844 12.605469 8.746094 C 11.988281 8.773438 11.566406 8.871094 11.195312 9.015625 C 10.816406 9.164062 10.492188 9.363281 10.167969 9.683594 C 9.84375 10.007812 9.648438 10.332031 9.5 10.710938 C 9.355469 11.082031 9.257812 11.503906 9.226562 12.121094 C 9.199219 12.742188 9.195312 12.9375 9.195312 14.515625 C 9.195312 16.09375 9.199219 16.289062 9.226562 16.910156 C 9.257812 17.527344 9.355469 17.949219 9.5 18.320312 C 9.648438 18.703125 9.84375 19.023438 10.167969 19.347656 C 10.492188 19.671875 10.816406 19.871094 11.195312 20.019531 C 11.566406 20.160156 11.988281 20.257812 12.605469 20.289062 C 13.226562 20.316406 13.421875 20.324219 15 20.324219 C 16.578125 20.324219 16.773438 20.316406 17.394531 20.289062 C 18.011719 20.257812 18.433594 20.160156 18.804688 20.019531 C 19.183594 19.871094 19.507812 19.671875 19.832031 19.347656 C 20.15625 19.023438 20.351562 18.703125 20.5 18.320312 C 20.644531 17.949219 20.742188 17.527344 20.773438 16.910156 C 20.800781 16.289062 20.804688 16.09375 20.804688 14.515625 C 20.804688 12.9375 20.800781 12.742188 20.773438 12.121094 C 20.742188 11.503906 20.644531 11.082031 20.5 10.710938 C 20.351562 10.332031 20.15625 10.007812 19.832031 9.683594 C 19.507812 9.363281 19.183594 9.164062 18.804688 9.015625 C 18.433594 8.871094 18.011719 8.773438 17.394531 8.746094 C 16.773438 8.714844 16.578125 8.710938 15 8.710938 Z M 15 11.535156 C 13.351562 11.535156 12.019531 12.871094 12.019531 14.515625 C 12.019531 16.164062 13.351562 17.496094 15 17.496094 C 16.648438 17.496094 17.980469 16.164062 17.980469 14.515625 C 17.980469 12.871094 16.648438 11.535156 15 11.535156 Z M 15 16.453125 C 13.929688 16.453125 13.066406 15.585938 13.066406 14.515625 C 13.066406 13.445312 13.929688 12.582031 15 12.582031 C 16.070312 12.582031 16.933594 13.445312 16.933594 14.515625 C 16.933594 15.585938 16.070312 16.453125 15 16.453125 Z M 18.796875 11.417969 C 18.796875 11.800781 18.484375 12.113281 18.097656 12.113281 C 17.714844 12.113281 17.402344 11.800781 17.402344 11.417969 C 17.402344 11.03125 17.714844 10.71875 18.097656 10.71875 C 18.484375 10.71875 18.796875 11.03125 18.796875 11.417969 Z M 18.796875 11.417969 " fill-opacity="1" fill-rule="nonzero"/></g></svg>