<svg xmlns="http://www.w3.org/2000/svg" xmlns:xlink="http://www.w3.org/1999/xlink" width="1000" zoomAndPan="magnify" viewBox="0 0 750 149.999998" height="200" preserveAspectRatio="xMidYMid meet" version="1.0"><defs><g/><clipPath id="855ec193a7"><path d="M 36.371094 18.398438 L 144 18.398438 L 144 112 L 36.371094 112 Z M 36.371094 18.398438 " clip-rule="nonzero"/></clipPath><clipPath id="b2b24cb15c"><path d="M 74 116 L 91 116 L 91 131.648438 L 74 131.648438 Z M 74 116 " clip-rule="nonzero"/></clipPath><clipPath id="988de41b5d"><path d="M 110 116 L 127 116 L 127 131.648438 L 110 131.648438 Z M 110 116 " clip-rule="nonzero"/></clipPath></defs><g clip-path="url(#855ec193a7)"><path fill="#000000" d="M 128.867188 100.761719 L 75.585938 100.761719 C 75.28125 100.769531 74.976562 100.75 74.675781 100.699219 C 74.375 100.648438 74.082031 100.570312 73.796875 100.460938 C 73.515625 100.351562 73.242188 100.214844 72.984375 100.050781 C 72.730469 99.886719 72.492188 99.699219 72.273438 99.484375 C 72.054688 99.273438 71.855469 99.042969 71.683594 98.789062 C 71.511719 98.539062 71.367188 98.273438 71.246094 97.992188 C 71.128906 97.710938 71.039062 97.421875 70.976562 97.125 C 70.917969 96.824219 70.886719 96.523438 70.886719 96.21875 C 70.886719 95.914062 70.917969 95.609375 70.976562 95.3125 C 71.039062 95.011719 71.128906 94.722656 71.246094 94.441406 C 71.367188 94.164062 71.511719 93.898438 71.683594 93.644531 C 71.855469 93.394531 72.054688 93.164062 72.273438 92.949219 C 72.492188 92.738281 72.730469 92.550781 72.984375 92.386719 C 73.242188 92.222656 73.515625 92.085938 73.796875 91.976562 C 74.082031 91.867188 74.375 91.785156 74.675781 91.734375 C 74.976562 91.683594 75.28125 91.664062 75.585938 91.675781 L 128.867188 91.675781 C 129.453125 91.675781 130.023438 91.578125 130.578125 91.386719 C 131.128906 91.191406 131.636719 90.910156 132.09375 90.542969 C 132.550781 90.179688 132.933594 89.746094 133.242188 89.25 C 133.550781 88.75 133.769531 88.214844 133.898438 87.644531 L 143.589844 44.039062 C 143.671875 43.660156 143.714844 43.28125 143.710938 42.894531 C 143.710938 42.511719 143.664062 42.128906 143.578125 41.753906 C 143.488281 41.378906 143.359375 41.019531 143.191406 40.671875 C 143.023438 40.324219 142.816406 40.003906 142.578125 39.703125 C 142.335938 39.402344 142.0625 39.132812 141.761719 38.890625 C 141.460938 38.652344 141.136719 38.449219 140.789062 38.285156 C 140.441406 38.117188 140.078125 37.992188 139.703125 37.90625 C 139.328125 37.820312 138.945312 37.777344 138.5625 37.777344 L 65.890625 37.777344 C 65.523438 37.777344 65.15625 37.816406 64.796875 37.890625 L 61.222656 22.386719 C 61.09375 21.820312 60.871094 21.289062 60.5625 20.796875 C 60.25 20.304688 59.867188 19.878906 59.410156 19.515625 C 58.957031 19.152344 58.453125 18.875 57.902344 18.683594 C 57.351562 18.492188 56.785156 18.398438 56.203125 18.398438 L 41.667969 18.398438 C 41.332031 18.398438 40.996094 18.429688 40.664062 18.496094 C 40.332031 18.5625 40.011719 18.660156 39.699219 18.789062 C 39.386719 18.917969 39.089844 19.078125 38.808594 19.265625 C 38.527344 19.453125 38.269531 19.664062 38.027344 19.90625 C 37.789062 20.144531 37.578125 20.402344 37.390625 20.683594 C 37.203125 20.964844 37.042969 21.261719 36.914062 21.574219 C 36.785156 21.886719 36.6875 22.210938 36.621094 22.539062 C 36.554688 22.871094 36.523438 23.207031 36.523438 23.542969 C 36.523438 23.882812 36.554688 24.21875 36.621094 24.550781 C 36.6875 24.878906 36.785156 25.203125 36.914062 25.515625 C 37.042969 25.828125 37.203125 26.125 37.390625 26.40625 C 37.578125 26.6875 37.789062 26.945312 38.027344 27.183594 C 38.269531 27.425781 38.527344 27.636719 38.808594 27.824219 C 39.089844 28.011719 39.386719 28.171875 39.699219 28.300781 C 40.011719 28.429688 40.332031 28.527344 40.664062 28.59375 C 40.996094 28.660156 41.332031 28.691406 41.667969 28.691406 L 52.109375 28.691406 L 65.242188 85.609375 C 64.71875 86.121094 64.230469 86.667969 63.785156 87.253906 C 63.339844 87.835938 62.941406 88.449219 62.585938 89.089844 C 62.234375 89.734375 61.929688 90.398438 61.671875 91.085938 C 61.417969 91.773438 61.214844 92.476562 61.066406 93.195312 C 60.914062 93.914062 60.816406 94.636719 60.773438 95.371094 C 60.730469 96.101562 60.742188 96.835938 60.808594 97.566406 C 60.871094 98.296875 60.992188 99.015625 61.164062 99.730469 C 61.335938 100.445312 61.5625 101.140625 61.839844 101.820312 C 62.113281 102.5 62.4375 103.15625 62.8125 103.785156 C 63.1875 104.417969 63.605469 105.015625 64.066406 105.585938 C 64.53125 106.15625 65.03125 106.6875 65.574219 107.183594 C 66.117188 107.675781 66.691406 108.128906 67.300781 108.539062 C 67.910156 108.949219 68.542969 109.308594 69.207031 109.625 C 69.871094 109.9375 70.550781 110.203125 71.253906 110.417969 C 71.957031 110.628906 72.667969 110.789062 73.394531 110.898438 C 74.121094 111.003906 74.851562 111.058594 75.585938 111.054688 L 128.867188 111.054688 C 129.207031 111.054688 129.542969 111.023438 129.871094 110.957031 C 130.203125 110.890625 130.527344 110.792969 130.839844 110.664062 C 131.152344 110.535156 131.449219 110.375 131.726562 110.1875 C 132.007812 110 132.269531 109.789062 132.507812 109.546875 C 132.746094 109.308594 132.960938 109.050781 133.148438 108.769531 C 133.335938 108.488281 133.496094 108.191406 133.625 107.878906 C 133.753906 107.566406 133.851562 107.246094 133.917969 106.914062 C 133.984375 106.582031 134.015625 106.246094 134.015625 105.910156 C 134.015625 105.570312 133.984375 105.234375 133.917969 104.902344 C 133.851562 104.574219 133.753906 104.25 133.625 103.9375 C 133.496094 103.625 133.335938 103.328125 133.148438 103.046875 C 132.960938 102.765625 132.746094 102.507812 132.507812 102.269531 C 132.269531 102.03125 132.007812 101.816406 131.726562 101.628906 C 131.449219 101.441406 131.152344 101.28125 130.839844 101.152344 C 130.527344 101.023438 130.203125 100.925781 129.871094 100.859375 C 129.542969 100.792969 129.207031 100.761719 128.867188 100.761719 Z M 128.867188 100.761719 " fill-opacity="1" fill-rule="nonzero"/></g><g clip-path="url(#b2b24cb15c)"><path fill="#000000" d="M 90.113281 123.925781 C 90.113281 124.433594 90.066406 124.933594 89.964844 125.433594 C 89.867188 125.929688 89.722656 126.410156 89.527344 126.878906 C 89.332031 127.347656 89.09375 127.792969 88.8125 128.214844 C 88.53125 128.636719 88.210938 129.027344 87.855469 129.386719 C 87.496094 129.742188 87.105469 130.0625 86.683594 130.347656 C 86.261719 130.628906 85.816406 130.867188 85.347656 131.058594 C 84.878906 131.253906 84.398438 131.398438 83.898438 131.5 C 83.402344 131.597656 82.902344 131.648438 82.394531 131.648438 C 81.886719 131.648438 81.386719 131.597656 80.886719 131.5 C 80.390625 131.398438 79.90625 131.253906 79.4375 131.058594 C 78.972656 130.867188 78.527344 130.628906 78.105469 130.347656 C 77.683594 130.0625 77.292969 129.742188 76.933594 129.386719 C 76.574219 129.027344 76.257812 128.636719 75.972656 128.214844 C 75.691406 127.792969 75.453125 127.347656 75.261719 126.878906 C 75.066406 126.410156 74.921875 125.929688 74.820312 125.433594 C 74.722656 124.933594 74.671875 124.433594 74.671875 123.925781 C 74.671875 123.417969 74.722656 122.917969 74.820312 122.417969 C 74.921875 121.921875 75.066406 121.4375 75.261719 120.96875 C 75.453125 120.503906 75.691406 120.058594 75.972656 119.636719 C 76.257812 119.214844 76.574219 118.824219 76.933594 118.464844 C 77.292969 118.105469 77.683594 117.785156 78.105469 117.503906 C 78.527344 117.222656 78.972656 116.984375 79.4375 116.792969 C 79.90625 116.597656 80.390625 116.453125 80.886719 116.351562 C 81.386719 116.253906 81.886719 116.203125 82.394531 116.203125 C 82.902344 116.203125 83.402344 116.253906 83.898438 116.351562 C 84.398438 116.453125 84.878906 116.597656 85.347656 116.792969 C 85.816406 116.984375 86.261719 117.222656 86.683594 117.503906 C 87.105469 117.785156 87.496094 118.105469 87.855469 118.464844 C 88.210938 118.824219 88.53125 119.214844 88.8125 119.636719 C 89.09375 120.058594 89.332031 120.503906 89.527344 120.96875 C 89.722656 121.4375 89.867188 121.921875 89.964844 122.417969 C 90.066406 122.917969 90.113281 123.417969 90.113281 123.925781 Z M 90.113281 123.925781 " fill-opacity="1" fill-rule="nonzero"/></g><g clip-path="url(#988de41b5d)"><path fill="#000000" d="M 126.144531 123.925781 C 126.144531 124.433594 126.097656 124.933594 125.996094 125.433594 C 125.898438 125.929688 125.753906 126.410156 125.558594 126.878906 C 125.363281 127.347656 125.125 127.792969 124.84375 128.214844 C 124.5625 128.636719 124.242188 129.027344 123.882812 129.386719 C 123.527344 129.742188 123.136719 130.0625 122.714844 130.347656 C 122.292969 130.628906 121.847656 130.867188 121.378906 131.058594 C 120.910156 131.253906 120.429688 131.398438 119.929688 131.5 C 119.433594 131.597656 118.933594 131.648438 118.425781 131.648438 C 117.917969 131.648438 117.414062 131.597656 116.917969 131.5 C 116.421875 131.398438 115.9375 131.253906 115.46875 131.058594 C 115 130.867188 114.558594 130.628906 114.136719 130.347656 C 113.714844 130.0625 113.324219 129.742188 112.964844 129.386719 C 112.605469 129.027344 112.285156 128.636719 112.003906 128.214844 C 111.722656 127.792969 111.484375 127.347656 111.292969 126.878906 C 111.097656 126.410156 110.953125 125.929688 110.851562 125.433594 C 110.753906 124.933594 110.703125 124.433594 110.703125 123.925781 C 110.703125 123.417969 110.753906 122.917969 110.851562 122.417969 C 110.953125 121.921875 111.097656 121.4375 111.292969 120.96875 C 111.484375 120.503906 111.722656 120.058594 112.003906 119.636719 C 112.285156 119.214844 112.605469 118.824219 112.964844 118.464844 C 113.324219 118.105469 113.714844 117.785156 114.136719 117.503906 C 114.558594 117.222656 115 116.984375 115.46875 116.792969 C 115.9375 116.597656 116.421875 116.453125 116.917969 116.351562 C 117.414062 116.253906 117.917969 116.203125 118.425781 116.203125 C 118.933594 116.203125 119.433594 116.253906 119.929688 116.351562 C 120.429688 116.453125 120.910156 116.597656 121.378906 116.792969 C 121.847656 116.984375 122.292969 117.222656 122.714844 117.503906 C 123.136719 117.785156 123.527344 118.105469 123.882812 118.464844 C 124.242188 118.824219 124.5625 119.214844 124.84375 119.636719 C 125.125 120.058594 125.363281 120.503906 125.558594 120.96875 C 125.753906 121.4375 125.898438 121.921875 125.996094 122.417969 C 126.097656 122.917969 126.144531 123.417969 126.144531 123.925781 Z M 126.144531 123.925781 " fill-opacity="1" fill-rule="nonzero"/></g><g fill="#000000" fill-opacity="1"><g transform="translate(211.580101, 101.780826)"><g><path d="M 18.578125 -13.9375 C 18.578125 -4.644531 13.929688 0 4.640625 0 L 0 0 L 0 -13.9375 L 4.640625 -13.9375 L 4.640625 -46.453125 L 0 -46.453125 L 0 -60.390625 L 27.875 -60.390625 L 27.875 -65.03125 L 41.8125 -65.03125 L 41.8125 -60.390625 L 69.6875 -60.390625 L 69.6875 -46.453125 L 65.03125 -46.453125 L 65.03125 -13.9375 L 69.6875 -13.9375 L 69.6875 0 L 65.03125 0 C 55.738281 0 51.09375 -4.644531 51.09375 -13.9375 L 51.09375 -46.453125 L 41.8125 -46.453125 L 41.8125 -23.234375 L 27.875 -23.234375 L 27.875 -46.453125 L 18.578125 -46.453125 Z M 18.578125 -13.9375 "/></g></g></g><g fill="#000000" fill-opacity="1"><g transform="translate(285.898646, 101.780826)"><g><path d="M 0 -60.390625 L 13.9375 -60.390625 L 13.9375 -13.9375 L 18.578125 -13.9375 L 18.578125 0 L 13.9375 0 C 4.644531 0 0 -4.644531 0 -13.9375 Z M 0 -60.390625 "/></g></g></g><g fill="#000000" fill-opacity="1"><g transform="translate(309.123191, 101.780826)"><g/></g></g><g fill="#000000" fill-opacity="1"><g transform="translate(332.719329, 101.780826)"><g><path d="M 41.8125 -46.453125 L 18.578125 -46.453125 L 18.578125 -41.8125 C 18.578125 -23.226562 28.890625 -13.9375 49.515625 -13.9375 L 55.75 -13.9375 L 55.75 0 L 49.515625 0 C 19.597656 0 4.640625 -13.9375 4.640625 -41.8125 L 4.640625 -46.453125 L 0 -46.453125 L 0 -60.390625 L 55.75 -60.390625 L 55.75 -37.171875 L 41.8125 -37.171875 Z M 41.8125 -46.453125 "/></g></g></g><g fill="#000000" fill-opacity="1"><g transform="translate(393.103146, 101.780826)"><g><path d="M 23.234375 -60.390625 L 23.234375 -65.03125 L 37.171875 -65.03125 L 37.171875 -60.390625 L 60.390625 -60.390625 L 60.390625 -46.453125 L 55.75 -46.453125 L 55.75 -13.9375 L 60.390625 -13.9375 L 60.390625 0 L 55.75 0 C 46.457031 0 41.8125 -4.644531 41.8125 -13.9375 L 41.8125 -23.234375 L 18.578125 -23.234375 L 18.578125 -13.9375 C 18.578125 -4.644531 13.929688 0 4.640625 0 L 0 0 L 0 -13.9375 L 4.640625 -13.9375 L 4.640625 -46.453125 L 0 -46.453125 L 0 -60.390625 Z M 41.8125 -46.453125 L 18.578125 -46.453125 L 18.578125 -37.171875 L 41.8125 -37.171875 Z M 41.8125 -46.453125 "/></g></g></g><g fill="#000000" fill-opacity="1"><g transform="translate(458.131873, 101.780826)"><g><path d="M 18.578125 -46.453125 L 18.578125 -37.171875 L 41.8125 -37.171875 L 41.8125 -46.453125 Z M 37.171875 -23.234375 C 37.171875 -17.035156 40.265625 -13.9375 46.453125 -13.9375 L 55.75 -13.9375 L 55.75 0 L 46.453125 0 C 30.972656 0 23.234375 -7.742188 23.234375 -23.234375 L 18.578125 -23.234375 L 18.578125 0 L 4.640625 0 L 4.640625 -23.234375 L 0 -23.234375 L 0 -37.171875 L 4.640625 -37.171875 L 4.640625 -60.390625 L 55.75 -60.390625 L 55.75 -37.171875 C 55.75 -27.878906 51.101562 -23.234375 41.8125 -23.234375 Z M 37.171875 -23.234375 "/></g></g></g><g fill="#000000" fill-opacity="1"><g transform="translate(518.51569, 101.780826)"><g><path d="M 18.578125 -46.453125 L 18.578125 -37.171875 L 41.8125 -37.171875 L 41.8125 -46.453125 Z M 37.171875 -23.234375 C 37.171875 -17.035156 40.265625 -13.9375 46.453125 -13.9375 L 55.75 -13.9375 L 55.75 0 L 46.453125 0 C 30.972656 0 23.234375 -7.742188 23.234375 -23.234375 L 18.578125 -23.234375 L 18.578125 0 L 4.640625 0 L 4.640625 -23.234375 L 0 -23.234375 L 0 -37.171875 L 4.640625 -37.171875 L 4.640625 -60.390625 L 55.75 -60.390625 L 55.75 -37.171875 C 55.75 -27.878906 51.101562 -23.234375 41.8125 -23.234375 Z M 37.171875 -23.234375 "/></g></g></g><g fill="#000000" fill-opacity="1"><g transform="translate(578.899528, 101.780826)"><g><path d="M 0 -60.390625 L 13.9375 -60.390625 L 13.9375 -13.9375 L 18.578125 -13.9375 L 18.578125 0 L 13.9375 0 C 4.644531 0 0 -4.644531 0 -13.9375 Z M 0 -60.390625 "/></g></g></g><g fill="#000000" fill-opacity="1"><g transform="translate(602.124093, 101.780826)"><g><path d="M 18.578125 -46.453125 L 0 -46.453125 L 0 -60.390625 L 51.09375 -60.390625 L 51.09375 -46.453125 L 32.515625 -46.453125 L 32.515625 -13.9375 L 37.171875 -13.9375 L 37.171875 0 L 32.515625 0 C 23.222656 0 18.578125 -4.644531 18.578125 -13.9375 Z M 18.578125 -46.453125 "/></g></g></g><g fill="#000000" fill-opacity="1"><g transform="translate(657.863002, 101.780826)"><g><path d="M 13.9375 -46.453125 L 13.9375 -13.9375 L 37.171875 -13.984375 L 37.171875 -46.453125 Z M 32.515625 -60.4375 L 51.09375 -60.4375 L 51.09375 0 L 37.171875 0 L 37.171875 -0.046875 L 13.9375 0 L 0 0 L 0 -60.390625 L 18.578125 -60.390625 L 18.578125 -65.03125 L 32.515625 -65.03125 Z M 32.515625 -60.4375 "/></g></g></g></svg>