<svg xmlns="http://www.w3.org/2000/svg" xmlns:xlink="http://www.w3.org/1999/xlink" width="40" zoomAndPan="magnify" viewBox="0 0 30 30.000001" height="40" preserveAspectRatio="xMidYMid meet" version="1.0"><defs><clipPath id="ba2ea746ea"><path d="M 10 4.957031 L 20 4.957031 L 20 15 L 10 15 Z M 10 4.957031 " clip-rule="nonzero"/></clipPath><clipPath id="15997cb16a"><path d="M 7.28125 15 L 22.523438 15 L 22.523438 23.828125 L 7.28125 23.828125 Z M 7.28125 15 " clip-rule="nonzero"/></clipPath><clipPath id="091da3f869"><path d="M 10 4.957031 L 20 4.957031 L 20 15 L 10 15 Z M 10 4.957031 " clip-rule="nonzero"/></clipPath><clipPath id="42b4306317"><path d="M 7.28125 15 L 22.523438 15 L 22.523438 23.828125 L 7.28125 23.828125 Z M 7.28125 15 " clip-rule="nonzero"/></clipPath></defs><g clip-path="url(#ba2ea746ea)"><path fill="#000000" d="M 14.902344 14.421875 C 15.214844 14.421875 15.519531 14.394531 15.824219 14.332031 C 16.128906 14.273438 16.425781 14.183594 16.714844 14.0625 C 17 13.945312 17.273438 13.796875 17.53125 13.625 C 17.789062 13.453125 18.03125 13.257812 18.25 13.035156 C 18.46875 12.816406 18.664062 12.578125 18.839844 12.320312 C 19.011719 12.0625 19.15625 11.789062 19.277344 11.5 C 19.394531 11.214844 19.484375 10.917969 19.546875 10.613281 C 19.605469 10.308594 19.636719 10 19.636719 9.6875 C 19.636719 9.378906 19.605469 9.070312 19.546875 8.765625 C 19.484375 8.460938 19.394531 8.164062 19.277344 7.878906 C 19.15625 7.589844 19.011719 7.316406 18.839844 7.058594 C 18.664062 6.800781 18.46875 6.5625 18.25 6.339844 C 18.03125 6.121094 17.789062 5.925781 17.53125 5.753906 C 17.273438 5.582031 17 5.433594 16.714844 5.316406 C 16.425781 5.195312 16.128906 5.105469 15.824219 5.046875 C 15.519531 4.984375 15.214844 4.953125 14.902344 4.953125 C 14.589844 4.953125 14.285156 4.984375 13.980469 5.046875 C 13.671875 5.105469 13.378906 5.195312 13.089844 5.316406 C 12.804688 5.433594 12.53125 5.582031 12.273438 5.753906 C 12.011719 5.925781 11.773438 6.121094 11.554688 6.339844 C 11.335938 6.5625 11.136719 6.800781 10.964844 7.058594 C 10.792969 7.316406 10.648438 7.589844 10.527344 7.878906 C 10.410156 8.164062 10.320312 8.460938 10.257812 8.765625 C 10.199219 9.070312 10.167969 9.378906 10.167969 9.6875 C 10.167969 10 10.199219 10.308594 10.257812 10.613281 C 10.320312 10.917969 10.410156 11.214844 10.53125 11.5 C 10.648438 11.789062 10.792969 12.058594 10.96875 12.316406 C 11.140625 12.578125 11.335938 12.816406 11.554688 13.035156 C 11.777344 13.253906 12.015625 13.453125 12.273438 13.625 C 12.53125 13.796875 12.804688 13.941406 13.089844 14.0625 C 13.378906 14.179688 13.675781 14.269531 13.980469 14.332031 C 14.285156 14.394531 14.589844 14.421875 14.902344 14.421875 Z M 14.902344 5.773438 C 15.160156 5.773438 15.414062 5.800781 15.664062 5.847656 C 15.917969 5.898438 16.164062 5.972656 16.402344 6.070312 C 16.636719 6.171875 16.863281 6.289062 17.078125 6.433594 C 17.292969 6.578125 17.488281 6.738281 17.671875 6.921875 C 17.851562 7.101562 18.015625 7.300781 18.15625 7.515625 C 18.300781 7.726562 18.421875 7.953125 18.519531 8.191406 C 18.617188 8.429688 18.691406 8.671875 18.742188 8.925781 C 18.792969 9.175781 18.816406 9.433594 18.816406 9.691406 C 18.816406 9.945312 18.792969 10.203125 18.742188 10.453125 C 18.691406 10.707031 18.617188 10.949219 18.519531 11.1875 C 18.421875 11.425781 18.300781 11.652344 18.15625 11.863281 C 18.015625 12.078125 17.851562 12.277344 17.671875 12.457031 C 17.488281 12.640625 17.292969 12.800781 17.078125 12.945312 C 16.863281 13.089844 16.636719 13.207031 16.402344 13.308594 C 16.164062 13.40625 15.917969 13.480469 15.664062 13.53125 C 15.414062 13.578125 15.160156 13.605469 14.902344 13.605469 C 14.644531 13.605469 14.390625 13.578125 14.136719 13.53125 C 13.886719 13.480469 13.640625 13.40625 13.402344 13.308594 C 13.167969 13.207031 12.941406 13.089844 12.726562 12.945312 C 12.511719 12.800781 12.316406 12.640625 12.132812 12.457031 C 11.953125 12.277344 11.789062 12.078125 11.644531 11.863281 C 11.503906 11.652344 11.382812 11.425781 11.285156 11.1875 C 11.1875 10.949219 11.113281 10.707031 11.0625 10.453125 C 11.011719 10.199219 10.988281 9.945312 10.988281 9.6875 C 10.988281 9.433594 11.011719 9.175781 11.0625 8.925781 C 11.113281 8.671875 11.1875 8.429688 11.285156 8.191406 C 11.382812 7.953125 11.503906 7.730469 11.648438 7.515625 C 11.789062 7.300781 11.953125 7.105469 12.136719 6.921875 C 12.316406 6.738281 12.515625 6.578125 12.726562 6.433594 C 12.941406 6.292969 13.167969 6.171875 13.40625 6.074219 C 13.640625 5.972656 13.886719 5.898438 14.136719 5.851562 C 14.390625 5.800781 14.644531 5.773438 14.902344 5.773438 Z M 14.902344 5.773438 " fill-opacity="1" fill-rule="nonzero"/></g><g clip-path="url(#15997cb16a)"><path fill="#000000" d="M 14.902344 15.179688 C 14.402344 15.179688 13.910156 15.226562 13.421875 15.324219 C 12.933594 15.421875 12.457031 15.566406 12 15.757812 C 11.539062 15.949219 11.101562 16.183594 10.6875 16.460938 C 10.273438 16.738281 9.890625 17.050781 9.539062 17.402344 C 9.183594 17.757812 8.871094 18.140625 8.59375 18.554688 C 8.316406 18.96875 8.082031 19.40625 7.890625 19.863281 C 7.699219 20.324219 7.554688 20.800781 7.460938 21.289062 C 7.363281 21.777344 7.3125 22.269531 7.3125 22.769531 C 7.3125 22.910156 7.339844 23.046875 7.390625 23.175781 C 7.445312 23.304688 7.523438 23.421875 7.621094 23.519531 C 7.722656 23.621094 7.835938 23.695312 7.96875 23.75 C 8.097656 23.804688 8.234375 23.832031 8.375 23.832031 L 21.429688 23.832031 C 21.78125 23.828125 22.066406 23.6875 22.277344 23.40625 C 22.421875 23.21875 22.492188 23.003906 22.492188 22.769531 C 22.492188 22.269531 22.441406 21.777344 22.34375 21.289062 C 22.246094 20.800781 22.101562 20.324219 21.910156 19.863281 C 21.722656 19.40625 21.488281 18.96875 21.210938 18.554688 C 20.933594 18.140625 20.617188 17.757812 20.265625 17.402344 C 19.914062 17.050781 19.53125 16.738281 19.117188 16.460938 C 18.703125 16.183594 18.265625 15.949219 17.804688 15.757812 C 17.34375 15.566406 16.871094 15.421875 16.382812 15.324219 C 15.894531 15.226562 15.398438 15.179688 14.902344 15.179688 Z M 21.625 22.914062 C 21.578125 22.980469 21.511719 23.011719 21.429688 23.011719 L 8.375 23.011719 C 8.28125 23.011719 8.210938 22.972656 8.164062 22.894531 C 8.140625 22.855469 8.128906 22.8125 8.128906 22.769531 C 8.132812 22.324219 8.175781 21.886719 8.265625 21.453125 C 8.355469 21.015625 8.484375 20.59375 8.65625 20.1875 C 8.824219 19.777344 9.035156 19.386719 9.28125 19.019531 C 9.53125 18.652344 9.808594 18.3125 10.125 18 C 10.4375 17.6875 10.78125 17.40625 11.148438 17.160156 C 11.519531 16.914062 11.90625 16.707031 12.316406 16.539062 C 12.726562 16.367188 13.148438 16.242188 13.585938 16.15625 C 14.019531 16.066406 14.457031 16.023438 14.902344 16.023438 C 15.347656 16.023438 15.785156 16.066406 16.21875 16.15625 C 16.65625 16.242188 17.078125 16.367188 17.488281 16.539062 C 17.898438 16.707031 18.285156 16.914062 18.65625 17.160156 C 19.023438 17.40625 19.367188 17.6875 19.679688 18 C 19.996094 18.3125 20.277344 18.652344 20.523438 19.019531 C 20.769531 19.386719 20.980469 19.777344 21.148438 20.1875 C 21.320312 20.59375 21.449219 21.015625 21.539062 21.453125 C 21.628906 21.886719 21.671875 22.324219 21.675781 22.769531 C 21.675781 22.824219 21.65625 22.871094 21.625 22.914062 Z M 21.625 22.914062 " fill-opacity="1" fill-rule="nonzero"/></g><g clip-path="url(#091da3f869)"><path fill="#000000" d="M 14.902344 14.421875 C 15.214844 14.421875 15.519531 14.394531 15.824219 14.332031 C 16.128906 14.273438 16.425781 14.183594 16.714844 14.0625 C 17 13.945312 17.273438 13.796875 17.53125 13.625 C 17.789062 13.453125 18.03125 13.257812 18.25 13.035156 C 18.46875 12.816406 18.664062 12.578125 18.839844 12.320312 C 19.011719 12.0625 19.15625 11.789062 19.277344 11.5 C 19.394531 11.214844 19.484375 10.917969 19.546875 10.613281 C 19.605469 10.308594 19.636719 10 19.636719 9.6875 C 19.636719 9.378906 19.605469 9.070312 19.546875 8.765625 C 19.484375 8.460938 19.394531 8.164062 19.277344 7.878906 C 19.15625 7.589844 19.011719 7.316406 18.839844 7.058594 C 18.664062 6.800781 18.46875 6.5625 18.25 6.339844 C 18.03125 6.121094 17.789062 5.925781 17.53125 5.753906 C 17.273438 5.582031 17 5.433594 16.714844 5.316406 C 16.425781 5.195312 16.128906 5.105469 15.824219 5.046875 C 15.519531 4.984375 15.214844 4.953125 14.902344 4.953125 C 14.589844 4.953125 14.285156 4.984375 13.980469 5.046875 C 13.671875 5.105469 13.378906 5.195312 13.089844 5.316406 C 12.804688 5.433594 12.53125 5.582031 12.273438 5.753906 C 12.011719 5.925781 11.773438 6.121094 11.554688 6.339844 C 11.335938 6.5625 11.136719 6.800781 10.964844 7.058594 C 10.792969 7.316406 10.648438 7.589844 10.527344 7.878906 C 10.410156 8.164062 10.320312 8.460938 10.257812 8.765625 C 10.199219 9.070312 10.167969 9.378906 10.167969 9.6875 C 10.167969 10 10.199219 10.308594 10.257812 10.613281 C 10.320312 10.917969 10.410156 11.214844 10.53125 11.5 C 10.648438 11.789062 10.792969 12.058594 10.96875 12.316406 C 11.140625 12.578125 11.335938 12.816406 11.554688 13.035156 C 11.777344 13.253906 12.015625 13.453125 12.273438 13.625 C 12.53125 13.796875 12.804688 13.941406 13.089844 14.0625 C 13.378906 14.179688 13.675781 14.269531 13.980469 14.332031 C 14.285156 14.394531 14.589844 14.421875 14.902344 14.421875 Z M 14.902344 5.773438 C 15.160156 5.773438 15.414062 5.800781 15.664062 5.847656 C 15.917969 5.898438 16.164062 5.972656 16.402344 6.070312 C 16.636719 6.171875 16.863281 6.289062 17.078125 6.433594 C 17.292969 6.578125 17.488281 6.738281 17.671875 6.921875 C 17.851562 7.101562 18.015625 7.300781 18.15625 7.515625 C 18.300781 7.726562 18.421875 7.953125 18.519531 8.191406 C 18.617188 8.429688 18.691406 8.671875 18.742188 8.925781 C 18.792969 9.175781 18.816406 9.433594 18.816406 9.691406 C 18.816406 9.945312 18.792969 10.203125 18.742188 10.453125 C 18.691406 10.707031 18.617188 10.949219 18.519531 11.1875 C 18.421875 11.425781 18.300781 11.652344 18.15625 11.863281 C 18.015625 12.078125 17.851562 12.277344 17.671875 12.457031 C 17.488281 12.640625 17.292969 12.800781 17.078125 12.945312 C 16.863281 13.089844 16.636719 13.207031 16.402344 13.308594 C 16.164062 13.40625 15.917969 13.480469 15.664062 13.53125 C 15.414062 13.578125 15.160156 13.605469 14.902344 13.605469 C 14.644531 13.605469 14.390625 13.578125 14.136719 13.53125 C 13.886719 13.480469 13.640625 13.40625 13.402344 13.308594 C 13.167969 13.207031 12.941406 13.089844 12.726562 12.945312 C 12.511719 12.800781 12.316406 12.640625 12.132812 12.457031 C 11.953125 12.277344 11.789062 12.078125 11.644531 11.863281 C 11.503906 11.652344 11.382812 11.425781 11.285156 11.1875 C 11.1875 10.949219 11.113281 10.707031 11.0625 10.453125 C 11.011719 10.199219 10.988281 9.945312 10.988281 9.6875 C 10.988281 9.433594 11.011719 9.175781 11.0625 8.925781 C 11.113281 8.671875 11.1875 8.429688 11.285156 8.191406 C 11.382812 7.953125 11.503906 7.730469 11.648438 7.515625 C 11.789062 7.300781 11.953125 7.105469 12.136719 6.921875 C 12.316406 6.738281 12.515625 6.578125 12.726562 6.433594 C 12.941406 6.292969 13.167969 6.171875 13.40625 6.074219 C 13.640625 5.972656 13.886719 5.898438 14.136719 5.851562 C 14.390625 5.800781 14.644531 5.773438 14.902344 5.773438 Z M 14.902344 5.773438 " fill-opacity="1" fill-rule="nonzero"/></g><g clip-path="url(#42b4306317)"><path fill="#000000" d="M 14.902344 15.179688 C 14.402344 15.179688 13.910156 15.226562 13.421875 15.324219 C 12.933594 15.421875 12.457031 15.566406 12 15.757812 C 11.539062 15.949219 11.101562 16.183594 10.6875 16.460938 C 10.273438 16.738281 9.890625 17.050781 9.539062 17.402344 C 9.183594 17.757812 8.871094 18.140625 8.59375 18.554688 C 8.316406 18.96875 8.082031 19.40625 7.890625 19.863281 C 7.699219 20.324219 7.554688 20.800781 7.460938 21.289062 C 7.363281 21.777344 7.3125 22.269531 7.3125 22.769531 C 7.3125 22.910156 7.339844 23.046875 7.390625 23.175781 C 7.445312 23.304688 7.523438 23.421875 7.621094 23.519531 C 7.722656 23.621094 7.835938 23.695312 7.96875 23.75 C 8.097656 23.804688 8.234375 23.832031 8.375 23.832031 L 21.429688 23.832031 C 21.78125 23.828125 22.066406 23.6875 22.277344 23.40625 C 22.421875 23.21875 22.492188 23.003906 22.492188 22.769531 C 22.492188 22.269531 22.441406 21.777344 22.34375 21.289062 C 22.246094 20.800781 22.101562 20.324219 21.910156 19.863281 C 21.722656 19.40625 21.488281 18.96875 21.210938 18.554688 C 20.933594 18.140625 20.617188 17.757812 20.265625 17.402344 C 19.914062 17.050781 19.53125 16.738281 19.117188 16.460938 C 18.703125 16.183594 18.265625 15.949219 17.804688 15.757812 C 17.34375 15.566406 16.871094 15.421875 16.382812 15.324219 C 15.894531 15.226562 15.398438 15.179688 14.902344 15.179688 Z M 21.625 22.914062 C 21.578125 22.980469 21.511719 23.011719 21.429688 23.011719 L 8.375 23.011719 C 8.28125 23.011719 8.210938 22.972656 8.164062 22.894531 C 8.140625 22.855469 8.128906 22.8125 8.128906 22.769531 C 8.132812 22.324219 8.175781 21.886719 8.265625 21.453125 C 8.355469 21.015625 8.484375 20.59375 8.65625 20.1875 C 8.824219 19.777344 9.035156 19.386719 9.28125 19.019531 C 9.53125 18.652344 9.808594 18.3125 10.125 18 C 10.4375 17.6875 10.78125 17.40625 11.148438 17.160156 C 11.519531 16.914062 11.90625 16.707031 12.316406 16.539062 C 12.726562 16.367188 13.148438 16.242188 13.585938 16.15625 C 14.019531 16.066406 14.457031 16.023438 14.902344 16.023438 C 15.347656 16.023438 15.785156 16.066406 16.21875 16.15625 C 16.65625 16.242188 17.078125 16.367188 17.488281 16.539062 C 17.898438 16.707031 18.285156 16.914062 18.65625 17.160156 C 19.023438 17.40625 19.367188 17.6875 19.679688 18 C 19.996094 18.3125 20.277344 18.652344 20.523438 19.019531 C 20.769531 19.386719 20.980469 19.777344 21.148438 20.1875 C 21.320312 20.59375 21.449219 21.015625 21.539062 21.453125 C 21.628906 21.886719 21.671875 22.324219 21.675781 22.769531 C 21.675781 22.824219 21.65625 22.871094 21.625 22.914062 Z M 21.625 22.914062 " fill-opacity="1" fill-rule="nonzero"/></g></svg>