<svg xmlns="http://www.w3.org/2000/svg" xmlns:xlink="http://www.w3.org/1999/xlink" width="40" zoomAndPan="magnify" viewBox="0 0 30 30.000001" height="40" preserveAspectRatio="xMidYMid meet" version="1.0"><defs><clipPath id="03e06ba619"><path d="M 5.238281 4.753906 L 24.761719 4.753906 L 24.761719 24.277344 L 5.238281 24.277344 Z M 5.238281 4.753906 " clip-rule="nonzero"/></clipPath><clipPath id="52bd42601b"><path d="M 15 4.753906 C 9.609375 4.753906 5.238281 9.125 5.238281 14.515625 C 5.238281 19.90625 9.609375 24.277344 15 24.277344 C 20.390625 24.277344 24.761719 19.90625 24.761719 14.515625 C 24.761719 9.125 20.390625 4.753906 15 4.753906 Z M 15 4.753906 " clip-rule="nonzero"/></clipPath><clipPath id="798573e945"><path d="M 9.324219 8.710938 L 20.9375 8.710938 L 20.9375 20.324219 L 9.324219 20.324219 Z M 9.324219 8.710938 " clip-rule="nonzero"/></clipPath></defs><g clip-path="url(#03e06ba619)"><g clip-path="url(#52bd42601b)"><path fill="#ffffff" d="M 5.238281 4.753906 L 24.761719 4.753906 L 24.761719 24.277344 L 5.238281 24.277344 Z M 5.238281 4.753906 " fill-opacity="1" fill-rule="nonzero"/></g></g><g clip-path="url(#798573e945)"><path fill="#000000" d="M 16.234375 13.625 L 20.558594 8.71875 L 19.535156 8.71875 L 15.78125 12.980469 L 12.78125 8.71875 L 9.324219 8.71875 L 13.859375 15.160156 L 9.324219 20.308594 L 10.347656 20.308594 L 14.3125 15.808594 L 17.480469 20.308594 L 20.9375 20.308594 Z M 14.832031 15.21875 L 14.371094 14.578125 L 10.71875 9.472656 L 12.292969 9.472656 L 15.242188 13.589844 L 15.699219 14.234375 L 19.535156 19.589844 L 17.960938 19.589844 Z M 14.832031 15.21875 " fill-opacity="1" fill-rule="nonzero"/></g></svg>